<?xml version="1.0" encoding="UTF-8"?>
<svg id="Layer_2" data-name="Layer 2" xmlns="http://www.w3.org/2000/svg" xmlns:xlink="http://www.w3.org/1999/xlink" viewBox="0 0 223.05 140.5">
  <defs>
    <style>
      .cls-1 {
        fill: url(#linear-gradient-2);
      }

      .cls-2 {
        fill: #fff;
      }

      .cls-3 {
        fill: url(#linear-gradient-14);
      }

      .cls-4 {
        fill: url(#linear-gradient-6);
      }

      .cls-5 {
        fill: #f69333;
      }

      .cls-6 {
        fill: url(#linear-gradient);
        fill-rule: evenodd;
      }

      .cls-7 {
        fill: url(#linear-gradient-11);
      }

      .cls-8 {
        fill: url(#linear-gradient-10);
      }

      .cls-9 {
        fill: #00a55d;
      }

      .cls-10 {
        fill: #ec1c24;
      }

      .cls-11 {
        fill: url(#linear-gradient-5);
      }

      .cls-12 {
        fill: url(#GradientFill_2);
      }

      .cls-13 {
        fill: url(#linear-gradient-7);
      }

      .cls-14 {
        fill: #ec1b2e;
      }

      .cls-15 {
        fill: url(#linear-gradient-9);
      }

      .cls-16 {
        fill: url(#linear-gradient-3);
      }

      .cls-17 {
        fill: url(#linear-gradient-4);
      }

      .cls-18 {
        fill: url(#linear-gradient-8);
      }

      .cls-19 {
        fill: url(#linear-gradient-12);
      }

      .cls-20 {
        fill: url(#linear-gradient-13);
      }
    </style>
    <linearGradient id="linear-gradient" x1="128.64" y1="20.34" x2="8.9" y2="128.16" gradientUnits="userSpaceOnUse">
      <stop offset="0" stop-color="#004080"/>
      <stop offset=".42" stop-color="#005da1"/>
      <stop offset=".77" stop-color="#0070b7"/>
      <stop offset="1" stop-color="#0077bf"/>
    </linearGradient>
    <radialGradient id="GradientFill_2" data-name="GradientFill 2" cx="101.88" cy="11.03" fx="101.88" fy="11.03" r="64.18" gradientTransform="translate(-3.23 42.67) scale(.92)" gradientUnits="userSpaceOnUse">
      <stop offset="0" stop-color="#ffcb31"/>
      <stop offset=".35" stop-color="#ffcb31"/>
      <stop offset=".74" stop-color="#ec1b2e"/>
      <stop offset="1" stop-color="#ec1b2e"/>
    </radialGradient>
    <linearGradient id="linear-gradient-2" x1="138.7" y1="96.29" x2="138.61" y2="79.21" gradientUnits="userSpaceOnUse">
      <stop offset="0" stop-color="#003b7a"/>
      <stop offset=".25" stop-color="#004282"/>
      <stop offset=".65" stop-color="#00569b"/>
      <stop offset="1" stop-color="#006cb6"/>
    </linearGradient>
    <linearGradient id="linear-gradient-3" x1="196.02" y1="95.95" x2="195.93" y2="79.22" xlink:href="#linear-gradient-2"/>
    <linearGradient id="linear-gradient-4" x1="177.59" y1="95.96" x2="177.5" y2="79.22" xlink:href="#linear-gradient-2"/>
    <linearGradient id="linear-gradient-5" x1="216.85" y1="99.51" x2="216.85" y2="82.85" gradientTransform="translate(-5.48 -2.53) rotate(-.3)" xlink:href="#linear-gradient-2"/>
    <linearGradient id="linear-gradient-6" x1="158.39" y1="96" x2="158.31" y2="79.21" xlink:href="#linear-gradient-2"/>
    <linearGradient id="linear-gradient-7" x1="117.75" y1="95.99" x2="117.66" y2="78.8" xlink:href="#linear-gradient-2"/>
    <linearGradient id="linear-gradient-8" x1="19.33" y1="137.67" x2="19.33" y2="104.47" gradientTransform="translate(-5.45 -1.95) rotate(-.3)" xlink:href="#linear-gradient-2"/>
    <linearGradient id="linear-gradient-9" x1="125.47" y1="137.79" x2="125.47" y2="107.12" gradientTransform="translate(-5.45 -1.95) rotate(-.3)" xlink:href="#linear-gradient-2"/>
    <linearGradient id="linear-gradient-10" x1="77.27" y1="137.8" x2="77.27" y2="107.12" gradientTransform="translate(-5.45 -1.95) rotate(-.3)" xlink:href="#linear-gradient-2"/>
    <linearGradient id="linear-gradient-11" x1="104.31" y1="137.79" x2="104.31" y2="107.12" gradientTransform="translate(-5.45 -1.95) rotate(-.3)" xlink:href="#linear-gradient-2"/>
    <linearGradient id="linear-gradient-12" x1="167.12" y1="138.13" x2="167.12" y2="106.33" gradientTransform="translate(-5.45 -1.95) rotate(-.3)" xlink:href="#linear-gradient-2"/>
    <linearGradient id="linear-gradient-13" x1="202.04" y1="138.33" x2="202.04" y2="105.74" gradientTransform="translate(-5.45 -1.95) rotate(-.3)" gradientUnits="userSpaceOnUse">
      <stop offset="0" stop-color="#004080"/>
      <stop offset="1" stop-color="#0077bf"/>
    </linearGradient>
    <linearGradient id="linear-gradient-14" x1="36.97" y1="135.69" x2="36.8" y2="104.16" xlink:href="#linear-gradient-2"/>
  </defs>
  <g id="Layer_1-2" data-name="Layer 1">
    <g>
      <path class="cls-2" d="M153.27,75.58c19.84-13.27,31.12-30.15,27.75-45.24C175.32,4.84,130.62-6.89,81.19,4.16,31.77,15.2-3.69,44.83,2.02,70.34c3.86,17.31,25.7,28.27,54.78,30.06l-3.84-.06h-6.47l-4.04,15-14.45-14.31,.79-3.29H11.82S0,140.16,0,140.16H27.59l3.54-14.78,14.91,15.1h20.01s13.84,.63,21.7-6.07l-1.63,5.52h25.91l4.47-6.08h10.19l1.48,5.86h24.38l3.96-15.12,15.37,15.22,24.91,.03,4.11-.16c7.53-.6,13.73-6.62,13.73-14.2,0,0,.75-8.42-6.49-12.25l5.08,.02s5.17-.14,7.43-3.28c1.13-1.58,2.22-3.84,2.24-6.28l.14-2.7-.09-2.86h-8.16l6.02-22.68h-65.67l-1.88,.12Z"/>
      <path class="cls-6" d="M31.62,93.26c9.32-1.09,21.43-4.94,33.63-12.83,0,0-7.99,1.23-17.24,.9-9.24-.31-19.76-2.16-24.69-8.28,4.76,2.79,13.47,3.8,26.4-.03-1.13-.25-6.34-1.35-10.45-4.78-4.1-3.4-7.09-9.08-3.97-18.38-.18,4.59,2.62,8.9,11.16,9.99-.45-1.52-1.79-4.64-.74-9.61,1.04-4.93,4.46-11.64,13.42-20.36-3.91,4.9-6.21,10.52-3.29,14.86,1.39-2.85,3.4-6.73,8.19-11.59,4.73-4.8,12.19-10.56,24.42-17.23-6.54,4.26-12.77,9.84-15.17,15.82,4.03-3.59,8.59-7.31,15.58-11.02,6.93-3.67,16.22-7.37,29.75-10.99-8.21,2.88-17.28,7.37-24.36,13.58,5.29-2.61,11.57-5.4,19.66-7.36,8.08-1.95,17.99-3.1,30.59-2.46-8.64,.48-19.23,2.66-30.05,7.68,4.1-.71,11.05-1.75,18.92-1.09,7.89,.67,16.8,3.05,24.86,9.23-6.73-3.1-16.5-4.73-29.08-2.75,1.25,.38,7.02,1.98,12.08,6.34,5.1,4.4,9.54,11.65,7.94,23.49-1.07-7.17-5.91-13.73-16.48-16.8,1,1.49,2.38,5.93,1.89,11.78-.49,5.92-2.96,13.37-9.74,20.77-4.72,5.27-8.71,6.68-8.71,6.68,0,0,2.72-3.05,4.87-7.84,2.13-4.74,3.69-11.17,1.5-17.97-2.07,11.93-12.44,21.72-22.51,28.41-10.2,6.78-20,10.31-20.5,9.66,0,0,4.22-2.94,9.07-7.41,4.82-4.43,9.76-8.86,12.35-14.83-14.44,14.65-36.82,23.69-57.39,24.79-6.34,.34-10.74-.32-11.91-.38Z"/>
      <path class="cls-2" d="M99.57,44.24c-1.86-3.01-7.97-2.88-13.68,.33-5.76,3.23-8.96,8.35-7.15,11.42,1.84,3.11,8.06,2.95,13.85-.36,5.75-3.26,8.84-8.37,6.99-11.39Z"/>
      <path class="cls-12" d="M142,39.3c-3.72-6.41-10.32-9.66-17.97-10.64-7.63-1-16.35,.24-24.32,2.84,5.49-2.16,10.54-3.66,13.81-4.16,9.22-3.43,17.53-4.29,23.87-3.79-8.88-1.97-18.25-1.42-26.99,.7-8.78,2.11-16.95,5.79-23.39,10.06,4.17-3.17,8.35-5.78,11.43-7.19,6.75-4.96,14.58-8.13,21.39-9.91-10.86,1.87-20.34,5.38-27.98,9.61-7.72,4.25-13.59,9.24-17.1,14.03,1.93-3.38,4.37-6.43,6.63-8.36,3.14-5.14,8.98-9.6,14.79-12.84-10.44,4.8-18.09,10.18-23.03,15.38-4.99,5.26-7.24,10.35-6.85,14.46-.95-2.71-.93-5.4-.04-7.4-1.18-4.09,1.6-8.82,5.43-12.8-8.09,6.76-12.27,12.86-13.26,17.81-1,5.01,1.23,8.8,5.88,10.9-3.94-1.05-6.63-2.58-7.51-4.07-5.69-1.75-6.89-5.66-5.91-9.55-7.59,15.03,3.3,21.35,19.45,19.26-6.03,1.29-11.02,1.73-13.74,1.32-6.74,2.42-15.07,.14-17.87-2.56,2.75,6.18,9.39,8.78,17.62,8.73,8.23-.06,17.98-2.79,26.91-7.22-6.05,3.51-11.81,6.17-15.65,7.28-2.52,4.07-19.82,6.96-26.57,6.92,6.93,1.46,16.22,1.14,24.17-.68,12.45-2.87,24.21-10.5,33.35-19.2,0,0,.03-.03,.05-.07-.01,.03-.03,.04-.05,.07-2.78,4.1-16.13,14.47-16.13,14.47-1.05,4.08-13.23,9.7-25.98,15.71,14.37-3.58,29.87-10.05,40.99-20.08,5.42-4.91,8.54-9.14,10.32-12.37,2.45-4.46,2.41-7.13,2.41-7.13h0c.71,5.25-2.08,10.43-2.08,10.43-1.17,13.09-13.05,21.2-13.05,21.2,2.69-1.56,6.03-3.84,6.03-3.84,10.34-8.46,15.68-16.25,17.38-22.66,1.65-6.35-.22-11.4-4.4-14.49,3.71,1.85,6.28,4.11,7.06,6.12,6.42,3.69,7.8,9.68,6.44,15.68,4.65-9.77,3.93-16.76,.19-21.29-3.7-4.51-10.41-6.68-17.91-6.77,5.45-.38,10.06-.15,12.6,.59,9.5-.42,15.86,2.07,19.58,5.5h0Zm-50.54,15h0c-5.8,3.2-12.01,3.36-13.84,.34-1.81-2.99,1.39-7.98,7.17-11.12,5.71-3.12,11.81-3.26,13.67-.33,1.87,2.95-1.25,7.93-7,11.11Z"/>
      <path class="cls-5" d="M143.85,30.51c21.45,5.71,23.18,29.36-5.63,41.91,23.9-13.98,17.98-34.51,5.57-41.8l.06-.11Z"/>
      <path class="cls-9" d="M140.97,75.79c33.85-11.92,44.3-60.04,.49-58.41,25.25-8.13,37.63,6.88,33.7,24.6-2.05,9.2-7.91,17.26-15.02,23.25-5.74,4.81-12.45,8.42-19.17,10.57Z"/>
      <path class="cls-9" d="M39.7,72.06c-24.65-4-21.59-31.43,10.11-41.28-27.9,13.31-25.26,37.6-10.05,41.16l-.06,.12Z"/>
      <path class="cls-5" d="M46.59,26.23c-34.94,8.18-51.93,55.7-8.22,58.83C.74,92.8-4.48,55.56,25.67,35.41c4.47-3,9.52-5.54,14.62-7.35,2.04-.72,4.13-1.32,6.3-1.83Z"/>
      <polygon class="cls-2" points="118 85.32 110.1 77.12 104.76 96.83 110.41 96.83 113.04 87.17 116.75 91.16 122.32 87.39 119.76 96.83 125.4 96.83 130.76 76.81 118.06 85.42 118 85.32"/>
      <path class="cls-1" d="M135.42,96.31c-2.66,0-4.87-.74-6.22-2.1-1.3-1.29-1.73-3.04-1.22-4.92l2.72-10.03h3.81l-2.49,9.18c-.46,1.67-.16,3.13,.83,4.1,.78,.79,1.96,1.2,3.39,1.2,3.26,0,6.11-2.11,6.93-5.14l2.54-9.35h3.8l-2.66,9.84c-1.12,4.11-6.03,7.21-11.43,7.21h0Z"/>
      <path class="cls-16" d="M202.05,95.89l-.76-3.21h-9.03l-2.5,3.21h-3.92l10.87-13.31,2.77-3.38h4.78l-1.18,1.45-.03,.03c-.32,.47-.45,1-.39,1.52v.07s3.51,13.62,3.51,13.62h-4.12Zm-7.92-5.62h6.63l-1.52-6.56-5.11,6.56Z"/>
      <polygon class="cls-2" points="211.49 78.28 211.49 78.28 206.48 96.76 212.13 96.76 217.14 78.28 211.49 78.28"/>
      <path class="cls-2" d="M188.71,83.77c.52-1.91-.19-3.11-.87-3.78-1.03-1.06-2.75-1.64-4.85-1.64h-12.04l-5.02,18.48h13.19c4.25,0,7.83-2.26,8.71-5.48,.51-1.87-.14-3.4-1.73-4.34,1.3-.78,2.24-1.93,2.6-3.24Zm-6.4,7.13c-.25,.91-1.45,1.6-2.81,1.6h-6.73l.79-2.94h7.09c.65,0,1.17,.16,1.45,.44,.29,.29,.28,.64,.2,.89Zm.74-7.09c-.18,.71-.99,1.41-2.35,1.41h-5.96l.68-2.5h6.31c.38,0,.89,.06,1.16,.33,.25,.24,.21,.59,.16,.76Z"/>
      <path class="cls-17" d="M167.1,95.95l4.52-16.7h11.36c1.86,0,3.36,.48,4.24,1.36,.75,.74,.95,1.73,.63,2.94-.3,1.08-1.08,2.04-2.2,2.7l-1.31,.77,1.31,.76c1.26,.72,1.72,1.89,1.33,3.33-.77,2.85-4.01,4.84-7.85,4.84h-12.03Zm4.5-2.56h7.89c1.78,0,3.32-.95,3.68-2.26,.17-.67,.02-1.3-.43-1.76-.46-.45-1.18-.71-2.09-.71h-7.78l-1.27,4.72Zm1.97-7.27h7.12c1.84,0,2.93-1.03,3.22-2.06,.17-.62,.04-1.23-.39-1.64-.38-.38-.99-.57-1.79-.57h-7l-1.16,4.27Z"/>
      <polygon class="cls-2" points="169.41 78.35 158.82 85.42 152.05 78.35 150.53 78.35 145.52 96.83 151.17 96.83 153.8 87.17 157.51 91.16 163.08 87.39 160.52 96.83 166.17 96.83 171.18 78.35 169.41 78.35"/>
      <path class="cls-11" d="M211.77,95.3s.01-.12,.02-.22l4.25-15.91h-3.71s-4.68,16.69-4.68,16.69h.15l3.77-.02h.03s.53-.01,.53-.01c-.34-.16-.35-.32-.35-.54Z"/>
      <path class="cls-4" d="M165.66,95.45s.02-.09,.03-.19l.59-2.18,3.75-13.83h-.33l-11,7.33-7.02-7.33h-.45l-4.53,16.7h3.8l2.86-10.55,4.29,4.61,6.94-4.71-2.89,10.68,3.82-.03h.48c-.31-.14-.33-.28-.33-.5Z"/>
      <path class="cls-13" d="M124.87,95.45s0-.03,0-.05l4.61-16.66-11.56,7.84-7.38-7.7-4.62,17.07h3.8l2.86-10.55,4.29,4.61,6.94-4.71-2.89,10.65h4.27c-.31-.16-.32-.29-.32-.5Z"/>
      <path class="cls-10" d="M90.22,130.01l-2.2,8.42h23l4.5-5.98h12.44l1.45,5.77h22.14l4.24-16.27,16.71,16.45h22.84l4.12-.18c7.53-.58,13.72-6,13.72-13.59,0-2.11-.47-4.12-1.34-5.91,0,0-2.35-5.98-11.53-5.57,0,0-3.81-.03-4.73,.01-.92,.04-1.58-.05-1.58-.05,.25,.01-.21-.02-.28-.28-.05-.19,.09-.41,.28-.48,0,0,.84-.61,4.64-.61h13.01s5.49,.32,7.76-2.81c1.34-1.84,2.01-4.16,2.05-6.61v-2.51l-20.98,.03s-9.31-.29-14.59,3.83l.6-2.28h-13.6l-4.3,16.22-16.12-16.01h-1.98l18.03,17.89s.4,.35,.86,.24c.38-.1,.55-.35,.64-.72,.09-.38,4.23-16.15,4.23-16.15h10.42l-1.77,6.6s2.92-8.45,17.68-8.18c4.12,.07,19.36,0,19.36,0l.03,1.02c-.04,2.2-.74,4.25-1.9,5.94,0,0-1.9,2.29-6.58,1.93h-12.84c-4.67,0-5.89,1.39-5.89,1.39-.39,.3-.65,.78-.65,1.31,0,.9,.86,1.42,1.73,1.47,0,0,3.93,.36,6.49,.19,2.59-.19,7.66,.45,9.89,4.42,.93,1.66,1.39,3.62,1.39,5.66,0,6.74-5.52,11.78-12.92,12.27l-25.22,.04-17.12-16.65s-.45-.73-1.03-.59c-.6,.13-.64,.95-.64,.95l-4.09,16.1h-20.05l-1.5-5.81h-14.25l-4.54,5.99h-20.42l3.9-14.74s-4.82,14.02-25,14.88l-21.19,.08-17.01-16.51s-.22-.54-.77-.41c-.55,.14-.68,1.18-.68,1.18l-3.99,15.51H4.31l10.11-35.92h11.79s.43-1.6,.43-1.6H13.33L2.35,138.58H26.16l4.22-16.14,16.51,16.25h18.52s16.15,1.06,24.81-8.68"/>
      <path class="cls-10" d="M25.09,102.41l17.84,17.55s.31,.42,.81,.29c.55-.08,.63-.79,.63-.79l4.32-16.03h26.19s5.87-.4,11.12,1.49c5.26,1.87,9.97,7.12,8.84,13.46l4.02-15.18h10.39l-8.36,31.26,25.39-31.44h12.85l-3.69,4.57s-1.52,1.34-.68,3.44l5.98,22.97,8.75-32.44h-1.6l-7.13,26.81-4.57-17.48s-.62-1.39,.73-2.82l5.17-6.37h-16.6l-21.47,26.55,7.04-26.52h-13.36l-2.52,9.57s-2.05-5.23-8.78-7.61c-6.15-2.19-11.64-1.61-11.64-1.61h-27.29l-4.3,16.08-16.01-15.76h-2.08Z"/>
      <path class="cls-2" d="M69.39,127.72c6.54-.04,12.21-3.45,13.45-8.11,.34-1.29,.44-3.14-1.07-4.61-1.41-1.39-3.82-2.11-6.96-2.1h-6.86s-3.92,14.83-3.92,14.83h5.36Z"/>
      <path class="cls-2" d="M91.39,108.37c-2.32-2.28-6.83-4.99-15.15-4.95l-17.6,.09-8.88,33.64,18.19-.07c12.93,.03,23.95-7.24,26.47-16.68,1.22-4.62,.15-8.88-3.04-12.02Zm-7.12,11.55c-1.41,5.31-7.66,9.2-14.87,9.24h-7.31s4.73-17.82,4.73-17.82h7.98c3.54-.02,6.31,.85,8.01,2.53,1.57,1.54,2.08,3.69,1.46,6.05Z"/>
      <path class="cls-18" d="M15.01,135.62c-.69-.24-.7-.66-.7-1.1,0-.03,.02-.21,.05-.42l8.41-31.68h-7.23l-9.26,33.2H15.01Z"/>
      <path class="cls-14" d="M84.27,119.92c-1.41,5.31-7.66,9.2-14.87,9.24h-7.31s4.73-17.82,4.73-17.82h7.98c3.54-.02,6.31,.85,8.01,2.53,1.57,1.54,2.08,3.69,1.46,6.05Z"/>
      <path class="cls-2" d="M69.39,127.72c6.54-.04,12.21-3.45,13.45-8.11,.34-1.29,.44-3.14-1.07-4.61-1.41-1.39-3.82-2.11-6.96-2.1h-6.86s-3.92,14.83-3.92,14.83h5.36Z"/>
      <polygon class="cls-10" points="127.14 123.33 120.72 123.33 125.64 117.26 127.14 123.33"/>
      <path class="cls-14" d="M202.07,124.27c-.89-.81-1.62-.76-3.88-.75h-3.02c-2.65-.08-4.91-.46-7.16-1.34-1.43-.55-2.86-1.46-2.89-1.49-3.08-2.23-3.38-4.95-3.27-6.43,0-.18,0-.45,.04-.8l-4.18,15.59c1.19-.85,2.63-1.34,4.17-1.35l14.66,.36c1.4-.12,5.2,.02,5.76-2.03,.13-.5,.06-1.5-.23-1.77Zm-5.51,2.32l-14.67-.36c-.77,0-1.53,.1-2.24,.29l1.99-7.47c.6,.91,1.46,1.81,2.72,2.65,3.66,2.44,7.95,3.02,10.75,3.12l3.12,.06c1.76-.02,2.64-.14,2.76,.35,.25,1.09-1.15,1.31-4.43,1.35Z"/>
      <path class="cls-15" d="M131.69,135.13l-1.42-5.85-16.22,.09-4.53,5.87-7.5,.05,19.83-24.56,5.04-6.24,9.06-.05-2.33,2.88-.03,.06c-.55,.83-.78,1.75-.66,2.67l.02,.11,6.52,24.94-7.78,.04Zm-14.04-10.45l11.59-.06-2.72-11.44-8.87,11.49Z"/>
      <path class="cls-8" d="M51.58,135.55l8.16-30.72,16.47-.08c7.83-.05,11.99,2.44,14.1,4.53,2.8,2.75,3.73,6.52,2.64,10.59-2.34,8.83-13.1,15.53-25.04,15.6l-16.34,.08Zm8.55-5.01l9.24-.04c7.86-.04,14.7-4.39,16.29-10.33,.77-2.91,.11-5.56-1.86-7.49-1.97-1.95-5.1-2.97-9.04-2.95l-9.11,.05-5.52,20.77Z"/>
      <path class="cls-7" d="M99.57,134.23c0-.05,.12-.92,.13-1,.06-.51,.3-1.51,.4-1.88l7.11-26.75-7.24,.04-7.38,27.78-.78,2.92h0l7.23-.04h.13s1.08,0,1.08,0c-.66-.32-.68-.62-.68-1.06Z"/>
      <path class="cls-19" d="M175.16,104.26l-3.37,12.72h0l-.02,.05-.71,2.67-.03,.06-.59,2.18c-.29,.69-.83,.57-1.12,.44l-1.83-1.81s-.05-.04-.07-.06l-.06-.05-3.28-3.25-.17-.18h0l-13.55-13.46-8.38,31.53,7.36-.04h1.08c-.66-.33-.68-.63-.68-1.06,0-.05,.12-.93,.13-1.02,.08-.63,.44-2.04,.44-2.04l2.3-8.62h0l.42-1.56,.36-1.35h.01s.55-2.04,.55-2.04c.28-.7,.83-.57,1.12-.44l1.7,1.68,.04,.02,1.52,1.5,2.17,2.13h-.02l13.05,12.98h.65l7.84-29.39c.15-.59,.36-1.14,.64-1.64l-7.48,.05Z"/>
      <path class="cls-20" d="M208.5,119.19c.96,1.43,1.63,3.24,1.63,5.24,0,5.9-5.31,10.28-10.22,10.6l-3.67,.24c-1.29,.07-2.23,.06-2.41,.06,0,0-1.69,.05-3.64-.05-12.95-.68-14.13,.1-14.13,.1-.06-.42,.03-.99,.11-1.36,.05-.28,.13-.62,.27-1,.84-2.33,2.91-3.92,5.47-3.93l14.63,.35c1.5,0,6.06-.06,7.22-3.29,.46-1.26,.04-2.16-.26-2.56-.81-1.14-2.43-1.59-5.29-1.58l-2.98-.03c-2.22-.07-5.31-.66-7.22-1.43-1.3-.52-2.02-1.13-2.02-1.13-2.39-1.76-2.77-3.89-2.65-5.18,.03-1.21,.41-10.88,15.46-11.39,0,0,1.59-.09,2.36-.09l4.8,.03c1.54,.08,3.97,.08,5.56,.15,1.1,.02,1.96,0,3.05,.02,1.13-.04,2.47-.04,3.88-.31,0,0-.04,1.59-.34,2.5-.86,2.36-2.45,3.48-5.03,3.51l-15.13,.06c-1.51,.02-6.32,.16-7.26,3.26l-.02,.06c-.29,.88-.17,1.74,.33,2.42,.81,1.11,2.45,1.59,5.33,1.58l5-.03s4.85-.25,7.18,3.21Z"/>
      <g>
        <path class="cls-10" d="M131.5,76.29l.33-1.26-13.64,9.24-8.53-8.9-6.05,22.35h7.49l2.38-8.76,3.15,3.38,4.22-2.87-2.24,8.26h7.48l.93-3.4s1.5,2.54,5.09,3.36c4.95,1.25,9.25-.75,9.99-1.09,.88-.4,2.27-1.21,3.1-1.97l-.84,3.1h7.5l2.37-8.76,3.15,3.37,4.22-2.87-2.24,8.26h19.33s2.91,.17,5.37-1.04l1.83-2.24s-.99,.92-2.34,1.5c-1.38,.57-2.81,.97-4.93,.89h-18.09l2.56-9.45-5.58,3.77-3.71-3.99-2.63,9.66h-5.65l1.64-6.06s-.93,2.12-3.31,3.79c-1.82,1.27-3.93,2.16-6.44,2.51-1.02,.13-4.17,.41-6.75-.8-.77-.36-3.55-1.76-3.78-5.03l-1.49,5.6h-5.64l2.56-9.44-5.57,3.77-3.71-3.99-2.63,9.66h-5.65l5.34-19.71,7.98,8.27,13.42-9.09Z"/>
        <path class="cls-10" d="M131.19,77.47l-.23,.89h4.72l-2.62,9.69s-.73,1.97-.02,3.26c.71,1.3,2.67,2.04,5.3,1.2,.57-.18,3.04-1.15,3.91-3.9,.1-.32,1.42-5.24,1.42-5.24l1.36-5h7.02l6.77,7.06,10.59-7.07h13.49s3.66-.17,5.32,2.05c1.76,2.62-.49,5.25-.49,5.25,0,0-.66,.82-1.63,1.36,0,0,3.41,1.72,1.12,5.78l11.85-14.49h7.08l-2.23,2.73s-.55,.48-.3,1.28c.26,.83,3.3,12.88,3.3,12.88l4.58-16.92h5.65l-5.01,18.47h-10.78l-.77-3.19h-7.88l-2.5,3.22h-5.09l-.72,.89h6.25l2.5-3.21h6.75l.75,3.21h12.17l5.5-20.29h-7.51l-3.88,14.3-2.45-9.51s-.14-.29,.15-.61c.28-.3,3.4-4.14,3.4-4.14h-9.39l-9.79,12s-.11-1.24-1.25-2.38c0,0,2.43-1.83,2.14-5.1-.07-.79-.72-3.92-5.74-4.44-.34-.03-1.21-.03-1.21-.03h-13.65l-10.2,6.81-6.52-6.81h-8.08l-2.87,10.58s-.57,2.69-3.47,3.62c-.75,.24-2.68,.59-3.76-.28-1.08-.87-.45-2.68-.45-2.68l3.05-11.25h-5.65Z"/>
        <g>
          <path class="cls-10" d="M181.84,82.72h-6.42l-.68,2.5h6.1c1.15-.04,2.17-.71,2.24-1.62,.08-.91-1.24-.88-1.24-.88Zm-.91,1.59l-5.03,.02,.19-.71h5.64s.35-.02,.42,.03c.1,.07-.4,.64-1.22,.67Z"/>
          <path class="cls-10" d="M180.86,89.57h-7.3s-.79,2.93-.79,2.93l7-.02c1.28-.08,2.54-.84,2.58-1.85,.03-1.03-1.49-1.06-1.49-1.06Zm-1.12,2.03h-5.82s.32-1.15,.32-1.15h6.63s.61-.04,.58,.22c-.02,.27-.64,.85-1.71,.93Z"/>
        </g>
        <polygon class="cls-10" points="196.57 89.02 198.56 86.68 199.12 89.02 196.57 89.02"/>
      </g>
      <path class="cls-3" d="M49.73,104.92l-3.38,12.72h0l-.02,.05-.7,2.67-.04,.06-.59,2.18c-.29,.69-.84,.57-1.12,.44l-1.84-1.82s-.05-.04-.07-.06l-.06-.04-3.27-3.26-.18-.18h0l-13.55-13.46-8.35,31.4h8.25c-.51-.29-.54-.57-.54-.98,0-.05,.13-.92,.13-1.01,.08-.64,.44-2.04,.44-2.04l2.29-8.62h-.01l.42-1.56,.37-1.35,.02-.03,.55-2.02c.29-.71,.83-.58,1.11-.44l1.7,1.68,.03,.02,1.51,1.5,2.17,2.14h-.02l12.78,12.7h1l7.77-29.11c.13-.6,.36-1.14,.64-1.63l-7.47,.03Z"/>
    </g>
  </g>
</svg>