<?xml version="1.0" encoding="UTF-8"?>
<svg id="Layer_2" data-name="Layer 2" xmlns="http://www.w3.org/2000/svg" xmlns:xlink="http://www.w3.org/1999/xlink" viewBox="0 0 489.23 365.82">
  <defs>
    <style>
      .cls-1 {
        fill: url(#linear-gradient-2);
      }

      .cls-2 {
        fill: #fff;
      }

      .cls-3 {
        fill: url(#linear-gradient-14);
      }

      .cls-4 {
        fill: url(#linear-gradient-6);
      }

      .cls-5 {
        fill: #f69333;
      }

      .cls-6 {
        fill: url(#linear-gradient);
      }

      .cls-6, .cls-7 {
        fill-rule: evenodd;
      }

      .cls-8 {
        fill: url(#linear-gradient-11);
      }

      .cls-9 {
        fill: #a2c23c;
      }

      .cls-10 {
        fill: url(#linear-gradient-10);
      }

      .cls-11 {
        fill: #00a55d;
      }

      .cls-12 {
        fill: #ec1c24;
      }

      .cls-13 {
        fill: url(#linear-gradient-5);
      }

      .cls-7 {
        fill: #fefefe;
      }

      .cls-14 {
        fill: url(#GradientFill_2);
      }

      .cls-15 {
        fill: url(#linear-gradient-7);
      }

      .cls-16 {
        fill: #ec1b2e;
      }

      .cls-17 {
        fill: url(#linear-gradient-9);
      }

      .cls-18 {
        fill: url(#linear-gradient-3);
      }

      .cls-19 {
        fill: url(#linear-gradient-4);
      }

      .cls-20 {
        fill: url(#linear-gradient-8);
      }

      .cls-21 {
        fill: url(#linear-gradient-12);
      }

      .cls-22 {
        fill: url(#linear-gradient-13);
      }
    </style>
    <linearGradient id="linear-gradient" x1="285.71" y1="166.78" x2="87.35" y2="345.38" gradientUnits="userSpaceOnUse">
      <stop offset="0" stop-color="#004080"/>
      <stop offset=".42" stop-color="#005da1"/>
      <stop offset=".77" stop-color="#0070b7"/>
      <stop offset="1" stop-color="#0077bf"/>
    </linearGradient>
    <radialGradient id="GradientFill_2" data-name="GradientFill 2" cx="97.48" cy="232" fx="97.48" fy="232" r="106.32" gradientTransform="translate(132.73 7.44) scale(.92)" gradientUnits="userSpaceOnUse">
      <stop offset="0" stop-color="#ffcb31"/>
      <stop offset=".35" stop-color="#ffcb31"/>
      <stop offset=".74" stop-color="#ec1b2e"/>
      <stop offset="1" stop-color="#ec1b2e"/>
    </radialGradient>
    <linearGradient id="linear-gradient-2" x1="302.37" y1="292.58" x2="302.22" y2="264.29" gradientUnits="userSpaceOnUse">
      <stop offset="0" stop-color="#003b7a"/>
      <stop offset=".25" stop-color="#004282"/>
      <stop offset=".65" stop-color="#00569b"/>
      <stop offset="1" stop-color="#006cb6"/>
    </linearGradient>
    <linearGradient id="linear-gradient-3" x1="397.31" y1="292.02" x2="397.16" y2="264.31" xlink:href="#linear-gradient-2"/>
    <linearGradient id="linear-gradient-4" x1="366.78" y1="292.04" x2="366.63" y2="264.31" xlink:href="#linear-gradient-2"/>
    <linearGradient id="linear-gradient-5" x1="425.33" y1="287.92" x2="425.33" y2="260.32" gradientTransform="translate(-3.23 6.15) rotate(-.3)" xlink:href="#linear-gradient-2"/>
    <linearGradient id="linear-gradient-6" x1="334.99" y1="292.1" x2="334.84" y2="264.3" xlink:href="#linear-gradient-2"/>
    <linearGradient id="linear-gradient-7" x1="267.66" y1="292.08" x2="267.51" y2="263.61" xlink:href="#linear-gradient-2"/>
    <linearGradient id="linear-gradient-8" x1="98.16" y1="351.51" x2="98.16" y2="296.52" gradientTransform="translate(-3.2 6.74) rotate(-.3)" xlink:href="#linear-gradient-2"/>
    <linearGradient id="linear-gradient-9" x1="273.98" y1="351.72" x2="273.98" y2="300.91" gradientTransform="translate(-3.2 6.74) rotate(-.3)" xlink:href="#linear-gradient-2"/>
    <linearGradient id="linear-gradient-10" x1="194.14" y1="351.72" x2="194.14" y2="300.9" gradientTransform="translate(-3.2 6.74) rotate(-.3)" xlink:href="#linear-gradient-2"/>
    <linearGradient id="linear-gradient-11" x1="238.93" y1="351.71" x2="238.93" y2="300.91" gradientTransform="translate(-3.2 6.74) rotate(-.3)" xlink:href="#linear-gradient-2"/>
    <linearGradient id="linear-gradient-12" x1="342.97" y1="352.27" x2="342.97" y2="299.59" gradientTransform="translate(-3.2 6.74) rotate(-.3)" xlink:href="#linear-gradient-2"/>
    <linearGradient id="linear-gradient-13" x1="400.82" y1="352.6" x2="400.82" y2="298.62" gradientTransform="translate(-3.2 6.74) rotate(-.3)" gradientUnits="userSpaceOnUse">
      <stop offset="0" stop-color="#004080"/>
      <stop offset="1" stop-color="#0077bf"/>
    </linearGradient>
    <linearGradient id="linear-gradient-14" x1="133.85" y1="357.85" x2="133.57" y2="305.63" xlink:href="#linear-gradient-2"/>
  </defs>
  <g id="Layer_1-2" data-name="Layer 1">
    <g>
      <g>
        <path class="cls-2" d="M326.49,258.29c32.86-21.98,51.55-49.95,45.97-74.95-9.44-42.24-83.48-61.67-165.36-43.37-81.87,18.28-140.61,67.37-131.15,109.63,6.4,28.67,42.57,46.83,90.75,49.8l-6.37-.09h-10.71l-6.69,24.84-23.94-23.7,1.31-5.46h-28.12s-19.58,70.27-19.58,70.27h45.7l5.87-24.48,24.7,25.01h33.15s22.93,1.05,35.95-10.06l-2.7,9.14h42.92l7.41-10.07h16.88l2.46,9.71h40.39l6.56-25.04,25.47,25.22,41.26,.05,6.81-.27c12.48-.99,22.75-10.97,22.75-23.52,0,0,1.23-13.94-10.76-20.29l8.42,.04s8.56-.23,12.31-5.43c1.87-2.61,3.68-6.37,3.72-10.4l.23-4.48-.15-4.74h-13.51l9.97-37.56h-108.79l-3.12,.2Z"/>
        <path class="cls-6" d="M124.98,287.57c15.44-1.81,35.5-8.17,55.7-21.25,0,0-13.24,2.03-28.57,1.5-15.31-.52-32.74-3.59-40.9-13.72,7.88,4.62,22.32,6.29,43.73-.04-1.87-.41-10.5-2.24-17.31-7.92-6.79-5.63-11.75-15.05-6.58-30.45-.29,7.61,4.34,14.74,18.49,16.54-.74-2.51-2.96-7.68-1.22-15.92,1.72-8.17,7.39-19.28,22.24-33.72-6.48,8.11-10.29,17.43-5.46,24.62,2.3-4.73,5.64-11.15,13.57-19.2,7.83-7.94,20.19-17.5,40.45-28.55-10.83,7.06-21.15,16.29-25.14,26.21,6.67-5.95,14.22-12.1,25.81-18.25,11.47-6.08,26.87-12.21,49.28-18.21-13.6,4.78-28.62,12.2-40.36,22.49,8.76-4.33,19.16-8.95,32.57-12.19,13.38-3.23,29.8-5.13,50.67-4.07-14.32,.79-31.86,4.41-49.77,12.72,6.79-1.18,18.31-2.9,31.35-1.8,13.07,1.11,27.83,5.05,41.18,15.28-11.14-5.14-27.33-7.83-48.17-4.56,2.07,.63,11.63,3.28,20.01,10.51,8.45,7.28,15.81,19.31,13.15,38.92-1.77-11.88-9.79-22.74-27.3-27.82,1.65,2.48,3.95,9.82,3.13,19.51-.82,9.81-4.91,22.14-16.14,34.41-7.81,8.73-14.42,11.06-14.42,11.06,0,0,4.51-5.06,8.07-12.98,3.53-7.85,6.11-18.5,2.48-29.77-3.43,19.76-20.61,35.98-37.29,47.06-16.89,11.23-33.14,17.07-33.96,16.01,0,0,6.99-4.88,15.02-12.27,7.98-7.34,16.16-14.68,20.46-24.57-23.91,24.26-60.99,39.25-95.07,41.06-10.5,.56-17.79-.53-19.73-.63Z"/>
        <path class="cls-2" d="M237.54,206.37c-3.09-4.99-13.2-4.77-22.66,.55-9.55,5.35-14.84,13.82-11.85,18.92,3.04,5.15,13.35,4.88,22.94-.59,9.53-5.39,14.64-13.87,11.57-18.88Z"/>
        <path class="cls-14" d="M307.82,198.18c-6.16-10.62-17.09-16-29.76-17.62-12.64-1.65-27.09,.4-40.29,4.71,9.1-3.57,17.46-6.07,22.88-6.9,15.28-5.69,29.03-7.11,39.55-6.28-14.71-3.26-30.24-2.34-44.71,1.16-14.54,3.5-28.07,9.59-38.75,16.66,6.91-5.26,13.84-9.57,18.94-11.91,11.19-8.21,24.15-13.47,35.44-16.41-17.99,3.1-33.69,8.92-46.35,15.91-12.79,7.03-22.51,15.31-28.32,23.25,3.19-5.61,7.24-10.65,10.98-13.84,5.2-8.52,14.88-15.9,24.5-21.27-17.29,7.95-29.96,16.87-38.15,25.48-8.27,8.71-11.99,17.14-11.35,23.96-1.58-4.49-1.54-8.95-.07-12.26-1.95-6.77,2.65-14.62,9-21.2-13.4,11.2-20.32,21.3-21.96,29.5-1.66,8.3,2.03,14.57,9.74,18.06-6.53-1.74-10.99-4.27-12.45-6.75-9.43-2.9-11.41-9.38-9.8-15.82-12.57,24.9,5.46,35.37,32.22,31.91-9.99,2.14-18.26,2.86-22.76,2.19-11.16,4.01-24.96,.22-29.6-4.24,4.56,10.23,15.56,14.55,29.19,14.47,13.64-.09,29.78-4.62,44.58-11.96-10.02,5.82-19.57,10.23-25.93,12.06-4.18,6.74-32.83,11.54-44.02,11.46,11.48,2.42,26.87,1.88,40.04-1.13,20.62-4.76,40.11-17.4,55.25-31.8,0,0,.04-.04,.09-.12-.02,.05-.05,.07-.09,.12-4.6,6.79-26.72,23.96-26.72,23.96-1.74,6.76-21.91,16.07-43.03,26.03,23.81-5.92,49.48-16.64,67.9-33.26,8.97-8.13,14.15-15.13,17.09-20.5,4.07-7.39,4-11.8,4-11.8h.01c1.17,8.69-3.45,17.27-3.45,17.27-1.94,21.69-21.63,35.12-21.63,35.12,4.45-2.59,9.99-6.37,9.99-6.37,17.12-14.02,25.98-26.92,28.78-37.53,2.74-10.52-.36-18.89-7.28-24.01,6.15,3.06,10.4,6.81,11.7,10.14,10.64,6.12,12.92,16.04,10.66,25.98,7.71-16.19,6.51-27.77,.32-35.27-6.13-7.46-17.25-11.06-29.68-11.21,9.02-.63,16.67-.25,20.87,.98,15.74-.7,26.27,3.43,32.43,9.12h0Zm-83.71,24.85h0c-9.6,5.3-19.89,5.57-22.92,.56-3-4.95,2.31-13.22,11.88-18.42,9.46-5.16,19.56-5.4,22.64-.55,3.1,4.88-2.06,13.14-11.6,18.41Z"/>
        <path class="cls-5" d="M310.89,183.63c35.53,9.47,38.4,48.64-9.32,69.43,39.59-23.16,29.78-57.17,9.22-69.24l.1-.19Z"/>
        <path class="cls-11" d="M306.11,258.64c56.07-19.75,73.38-99.45,.82-96.76,41.83-13.47,62.33,11.4,55.82,40.74-3.39,15.24-13.1,28.59-24.88,38.51-9.5,7.97-20.62,13.96-31.75,17.5Z"/>
        <path class="cls-11" d="M138.36,252.45c-40.83-6.63-35.77-52.07,16.75-68.38-46.22,22.04-41.85,62.28-16.65,68.18l-.1,.2Z"/>
        <path class="cls-5" d="M149.78,176.53c-57.87,13.55-86.03,92.27-13.62,97.45-62.33,12.82-70.97-48.86-21.03-82.24,7.41-4.97,15.77-9.18,24.21-12.18,3.38-1.2,6.84-2.19,10.44-3.03Z"/>
        <polygon class="cls-2" points="268.08 274.42 254.99 260.83 246.14 293.48 255.5 293.48 259.85 277.49 266 284.1 275.23 277.85 270.99 293.48 280.34 293.48 289.2 260.33 268.16 274.59 268.08 274.42"/>
        <path class="cls-1" d="M296.94,292.61c-4.41,0-8.07-1.23-10.3-3.48-2.15-2.14-2.86-5.04-2.02-8.16l4.5-16.61h6.31l-4.12,15.21c-.76,2.77-.26,5.19,1.37,6.8,1.3,1.3,3.25,1.99,5.61,1.99,5.4,0,10.13-3.5,11.48-8.51l4.2-15.48h6.3l-4.41,16.31c-1.86,6.81-10,11.95-18.93,11.95h0Z"/>
        <path class="cls-18" d="M407.31,291.93l-1.25-5.32h-14.95l-4.13,5.32h-6.5l18.01-22.05,4.59-5.6h7.92l-1.96,2.4-.05,.06c-.52,.78-.75,1.65-.64,2.52v.11s5.81,22.57,5.81,22.57h-6.83Zm-13.11-9.3h10.99l-2.52-10.87-8.47,10.87Z"/>
        <polygon class="cls-2" points="422.94 262.76 422.94 262.76 414.65 293.36 424 293.36 432.3 262.76 422.94 262.76"/>
        <path class="cls-2" d="M385.2,271.85c.85-3.17-.31-5.16-1.44-6.27-1.7-1.76-4.56-2.71-8.04-2.71h-19.94l-8.31,30.61h21.86c7.04,0,12.97-3.74,14.42-9.08,.85-3.09-.23-5.64-2.86-7.18,2.16-1.29,3.71-3.2,4.31-5.37Zm-10.61,11.81c-.41,1.5-2.4,2.65-4.66,2.65h-11.14l1.31-4.86h11.75c1.08,0,1.94,.26,2.4,.73,.48,.47,.46,1.07,.34,1.48Zm1.22-11.74c-.31,1.17-1.64,2.34-3.9,2.34h-9.87l1.13-4.14h10.46c.64,0,1.48,.09,1.92,.54,.41,.4,.35,.98,.26,1.26Z"/>
        <path class="cls-19" d="M349.41,292.02l7.49-27.66h18.82c3.08,0,5.56,.79,7.02,2.25,1.24,1.23,1.58,2.87,1.05,4.86-.5,1.79-1.79,3.37-3.65,4.47l-2.17,1.28,2.17,1.27c2.08,1.2,2.85,3.13,2.2,5.51-1.28,4.73-6.64,8.01-13.01,8.01h-19.92Zm7.46-4.25h13.07c2.95,0,5.5-1.58,6.1-3.74,.29-1.11,.03-2.15-.72-2.91-.76-.75-1.95-1.17-3.46-1.17h-12.88l-2.11,7.82Zm3.26-12.05h11.79c3.05,0,4.86-1.71,5.33-3.41,.28-1.03,.06-2.04-.64-2.72-.64-.63-1.64-.94-2.96-.94h-11.59l-1.92,7.08Z"/>
        <polygon class="cls-2" points="353.24 262.87 335.69 274.59 324.47 262.87 321.97 262.87 313.67 293.48 323.02 293.48 327.37 277.49 333.51 284.1 342.75 277.85 338.51 293.48 347.86 293.48 356.16 262.87 353.24 262.87"/>
        <path class="cls-13" d="M423.41,290.96s.02-.19,.04-.36l7.03-26.35h-6.15s-7.76,27.65-7.76,27.65h.25l6.25-.03h.04s.88-.02,.88-.02c-.56-.26-.59-.52-.59-.89Z"/>
        <path class="cls-4" d="M347.02,291.2s.03-.15,.04-.32l.97-3.61,6.2-22.91h-.54l-18.22,12.13-11.63-12.13h-.75l-7.51,27.66h6.3l4.74-17.47,7.1,7.63,11.5-7.8-4.79,17.69,6.33-.05h.8c-.51-.23-.54-.47-.54-.82Z"/>
        <path class="cls-15" d="M279.46,291.19s0-.05,0-.09l7.64-27.6-19.15,12.98-12.22-12.75-7.66,28.28h6.3l4.74-17.47,7.11,7.63,11.49-7.8-4.79,17.64h7.07c-.51-.26-.53-.48-.53-.83Z"/>
        <path class="cls-12" d="M222.05,348.45l-3.64,13.94h38.11l7.46-9.9h20.61l2.4,9.56h36.67l7.02-26.95,27.68,27.25h37.83l6.83-.3c12.47-.96,22.73-9.94,22.73-22.51,0-3.49-.78-6.82-2.21-9.79,0,0-3.89-9.91-19.1-9.23,0,0-6.31-.04-7.83,.02-1.53,.06-2.61-.08-2.61-.08,.42,.02-.35-.03-.46-.46-.08-.32,.15-.67,.46-.8,0,0,1.39-1.02,7.69-1.02h21.55s9.09,.52,12.85-4.65c2.22-3.05,3.33-6.9,3.39-10.94v-4.16l-34.75,.04s-15.42-.48-24.17,6.35l.99-3.77h-22.52l-7.13,26.87-26.7-26.52h-3.27l29.86,29.64s.67,.58,1.43,.4c.63-.17,.92-.58,1.06-1.19,.15-.63,7.01-26.75,7.01-26.75h17.26l-2.92,10.94s4.84-13.99,29.29-13.56c6.83,.12,32.07,0,32.07,0l.05,1.69c-.07,3.65-1.22,7.03-3.15,9.84,0,0-3.15,3.79-10.89,3.19h-21.27c-7.74,0-9.76,2.31-9.76,2.31-.64,.5-1.07,1.28-1.07,2.16,0,1.5,1.42,2.35,2.87,2.44,0,0,6.51,.59,10.75,.31,4.3-.31,12.68,.75,16.38,7.33,1.55,2.75,2.31,5.99,2.31,9.38,0,11.17-9.14,19.52-21.4,20.33l-41.77,.07-28.36-27.57s-.74-1.21-1.71-.97c-.99,.22-1.06,1.58-1.06,1.58l-6.77,26.67h-33.21l-2.48-9.62h-23.6l-7.52,9.92h-33.82l6.46-24.42s-7.99,23.23-41.41,24.65l-35.09,.14-28.18-27.34s-.37-.9-1.27-.68c-.91,.23-1.13,1.95-1.13,1.95l-6.61,25.7h-34.49l16.74-59.5,19.54-.02,.71-2.63h-22.06l-18.18,64.84h39.45l6.99-26.74,27.35,26.93h30.67s26.75,1.75,41.09-14.37"/>
        <path class="cls-12" d="M114.17,302.73l29.56,29.06s.51,.69,1.33,.48c.91-.13,1.05-1.31,1.05-1.31l7.15-26.56h43.38s9.72-.66,18.41,2.47c8.71,3.1,16.51,11.79,14.64,22.3l6.66-25.14h17.22l-13.86,51.78,42.06-52.08h21.29l-6.12,7.57s-2.51,2.22-1.13,5.7l9.91,38.05,14.5-53.74h-2.64l-11.81,44.42-7.58-28.95s-1.02-2.3,1.21-4.66l8.57-10.56h-27.5l-35.56,43.98,11.66-43.92h-22.12l-4.18,15.85s-3.4-8.66-14.54-12.61c-10.18-3.63-19.28-2.67-19.28-2.67h-45.2l-7.13,26.64-26.52-26.1h-3.44Z"/>
        <path class="cls-2" d="M187.55,344.65c10.84-.06,20.22-5.71,22.28-13.43,.57-2.13,.73-5.2-1.77-7.64-2.34-2.3-6.33-3.5-11.52-3.48h-11.36s-6.5,24.56-6.5,24.56h8.88Z"/>
        <path class="cls-2" d="M223.99,312.59c-3.84-3.78-11.31-8.27-25.09-8.2l-29.16,.15-14.7,55.72,30.14-.12c21.42,.05,39.67-11.99,43.84-27.63,2.03-7.65,.25-14.71-5.03-19.92Zm-11.79,19.13c-2.33,8.8-12.69,15.25-24.63,15.31h-12.11s7.84-29.52,7.84-29.52h13.22c5.87-.04,10.45,1.41,13.27,4.2,2.59,2.56,3.45,6.12,2.42,10.02Z"/>
        <path class="cls-20" d="M97.46,357.74c-1.14-.4-1.15-1.09-1.15-1.82,0-.05,.03-.36,.08-.69l13.92-52.48h-11.98l-15.34,54.99h14.47Z"/>
        <path class="cls-16" d="M212.2,331.73c-2.33,8.8-12.69,15.25-24.63,15.31h-12.11s7.84-29.52,7.84-29.52h13.22c5.87-.04,10.45,1.41,13.27,4.2,2.59,2.56,3.45,6.12,2.42,10.02Z"/>
        <path class="cls-2" d="M187.55,344.65c10.84-.06,20.22-5.71,22.28-13.43,.57-2.13,.73-5.2-1.77-7.64-2.34-2.3-6.33-3.5-11.52-3.48h-11.36s-6.5,24.56-6.5,24.56h8.88Z"/>
        <polygon class="cls-12" points="283.22 337.38 272.57 337.38 280.73 327.32 283.22 337.38"/>
        <path class="cls-16" d="M407.34,338.94c-1.47-1.35-2.68-1.26-6.43-1.23h-5c-4.39-.13-8.13-.76-11.85-2.23-2.37-.91-4.74-2.42-4.79-2.46-5.11-3.69-5.6-8.2-5.41-10.65-.01-.3,.01-.74,.06-1.33l-6.92,25.83c1.97-1.41,4.36-2.22,6.92-2.23l24.28,.59c2.32-.2,8.61,.04,9.54-3.36,.21-.82,.1-2.49-.39-2.92Zm-9.13,3.85l-24.3-.59c-1.28,.01-2.53,.17-3.7,.49l3.29-12.38c1,1.5,2.42,3,4.5,4.4,6.06,4.05,13.16,5,17.81,5.17l5.16,.1c2.92-.03,4.38-.23,4.57,.59,.42,1.81-1.91,2.17-7.33,2.24Z"/>
        <path class="cls-17" d="M290.74,356.93l-2.35-9.69-26.87,.14-7.5,9.73-12.42,.08,32.84-40.69,8.35-10.33,15.02-.08-3.86,4.77-.05,.1c-.91,1.38-1.29,2.9-1.1,4.43l.03,.18,10.8,41.31-12.89,.06Zm-23.27-17.31l19.2-.1-4.5-18.94-14.69,19.04Z"/>
        <path class="cls-10" d="M158.05,357.62l13.52-50.88,27.29-.13c12.97-.08,19.86,4.05,23.36,7.51,4.63,4.55,6.18,10.8,4.38,17.54-3.87,14.62-21.71,25.72-41.48,25.84l-27.06,.13Zm14.17-8.3l15.3-.07c13.02-.06,24.35-7.28,26.99-17.12,1.28-4.82,.18-9.21-3.07-12.4-3.26-3.23-8.46-4.92-14.98-4.89l-15.09,.08-9.14,34.41Z"/>
        <path class="cls-8" d="M237.54,355.44c0-.09,.2-1.53,.21-1.66,.1-.85,.49-2.49,.66-3.12l11.77-44.31-11.99,.06-12.23,46.03-1.29,4.84h0l11.98-.06h.22s1.78-.01,1.78-.01c-1.1-.53-1.12-1.03-1.12-1.76Z"/>
        <path class="cls-21" d="M362.76,305.8l-5.59,21.07h0l-.03,.09-1.18,4.42-.05,.09-.97,3.61c-.47,1.15-1.38,.94-1.86,.73l-3.04-3s-.08-.06-.12-.09l-.1-.08-5.43-5.38-.28-.29h0l-22.44-22.3-13.89,52.23,12.19-.06h1.79c-1.1-.54-1.12-1.04-1.13-1.76,0-.09,.2-1.54,.22-1.69,.14-1.04,.72-3.38,.72-3.38l3.8-14.28h-.01l.7-2.59,.59-2.24,.02-.02,.91-3.36c.46-1.16,1.37-.95,1.85-.73l2.81,2.79,.06,.04,2.51,2.49,3.59,3.53h-.03l21.63,21.5h1.08l12.99-48.68c.24-.97,.6-1.89,1.07-2.72l-12.39,.08Z"/>
        <path class="cls-22" d="M417.98,330.52c1.6,2.37,2.69,5.37,2.69,8.69,0,9.78-8.79,17.02-16.94,17.56l-6.08,.4c-2.14,.11-3.69,.1-4,.1,0,0-2.81,.09-6.03-.08-21.45-1.13-23.41,.17-23.41,.17-.1-.7,.05-1.64,.18-2.25,.08-.46,.21-1.03,.44-1.65,1.4-3.85,4.82-6.49,9.07-6.51l24.24,.58c2.49-.01,10.05-.1,11.95-5.46,.76-2.09,.06-3.58-.42-4.25-1.35-1.9-4.03-2.64-8.76-2.62l-4.93-.05c-3.67-.11-8.8-1.09-11.95-2.37-2.15-.87-3.34-1.88-3.34-1.88-3.97-2.91-4.59-6.45-4.39-8.58,.05-2.01,.69-18.01,25.61-18.87,0,0,2.63-.15,3.9-.15l7.95,.05c2.54,.14,6.57,.14,9.21,.24,1.82,.03,3.25,0,5.05,.03,1.87-.06,4.1-.06,6.43-.51,0,0-.06,2.64-.57,4.14-1.42,3.9-4.06,5.77-8.33,5.82l-25.06,.09c-2.5,.03-10.47,.27-12.03,5.39l-.03,.1c-.47,1.46-.28,2.88,.54,4.01,1.34,1.83,4.07,2.63,8.82,2.61l8.28-.05s8.04-.41,11.89,5.32Z"/>
        <g>
          <path class="cls-12" d="M290.43,259.47l.55-2.09-22.6,15.3-14.14-14.74-10.03,37.03h12.41l3.94-14.52,5.22,5.6,6.99-4.76-3.7,13.68h12.4l1.54-5.63s2.48,4.21,8.43,5.57c8.2,2.07,15.32-1.25,16.55-1.8,1.46-.67,3.76-2.01,5.14-3.27l-1.39,5.13h12.42l3.93-14.52,5.22,5.59,6.99-4.75-3.71,13.68h32.02s4.82,.28,8.89-1.72l3.03-3.72s-1.64,1.53-3.88,2.49c-2.28,.95-4.65,1.61-8.16,1.48h-29.97l4.24-15.65-9.24,6.25-6.14-6.61-4.35,15.99h-9.35l2.72-10.04s-1.54,3.5-5.48,6.28c-3.01,2.11-6.51,3.59-10.67,4.15-1.69,.22-6.91,.67-11.18-1.33-1.28-.6-5.88-2.91-6.25-8.33l-2.47,9.27h-9.35l4.24-15.63-9.23,6.25-6.15-6.61-4.36,15.99h-9.36l8.85-32.65,13.22,13.69,22.22-15.06Z"/>
          <path class="cls-12" d="M289.92,261.4l-.39,1.47h7.82l-4.35,16.05s-1.21,3.26-.04,5.41c1.18,2.15,4.42,3.38,8.78,2,.95-.3,5.03-1.9,6.48-6.47,.16-.54,2.36-8.69,2.36-8.69l2.25-8.29h11.63l11.22,11.7,17.55-11.71h22.35s6.06-.28,8.81,3.39c2.91,4.34-.81,8.7-.81,8.7,0,0-1.1,1.36-2.7,2.26,0,0,5.65,2.86,1.85,9.58l19.63-24h11.72l-3.69,4.52s-.92,.8-.5,2.13c.43,1.37,5.46,21.34,5.46,21.34l7.58-28.02h9.36l-8.3,30.6h-17.86l-1.27-5.28h-13.05l-4.15,5.33h-8.43l-1.2,1.48h10.36l4.15-5.32h11.17l1.24,5.32h20.16l9.11-33.61h-12.43l-6.42,23.69-4.05-15.76s-.23-.49,.25-1.02c.46-.49,5.63-6.85,5.63-6.85h-15.55l-16.22,19.87s-.18-2.05-2.06-3.95c0,0,4.03-3.04,3.54-8.45-.11-1.32-1.2-6.5-9.51-7.36-.56-.04-2-.04-2-.04h-22.61l-16.89,11.27-10.79-11.27h-13.39l-4.76,17.53s-.95,4.45-5.75,6c-1.24,.4-4.45,.98-6.23-.46-1.78-1.44-.74-4.43-.74-4.43l5.05-18.64h-9.36Z"/>
          <g>
            <path class="cls-12" d="M373.82,270.11h-10.64l-1.13,4.14h10.11c1.91-.07,3.59-1.18,3.72-2.68,.13-1.51-2.05-1.46-2.05-1.46Zm-1.51,2.64l-8.33,.03,.32-1.18h9.34s.59-.03,.69,.05c.17,.12-.67,1.07-2.02,1.11Z"/>
            <path class="cls-12" d="M372.2,281.45h-12.09s-1.31,4.86-1.31,4.86l11.59-.03c2.11-.13,4.2-1.38,4.28-3.06,.05-1.7-2.47-1.76-2.47-1.76Zm-1.85,3.36l-9.64,.02,.53-1.92h10.99s1.01-.06,.95,.36c-.04,.45-1.06,1.4-2.83,1.54Z"/>
          </g>
          <polygon class="cls-12" points="398.23 280.55 401.52 276.68 402.44 280.55 398.23 280.55"/>
        </g>
        <path class="cls-3" d="M154.98,306.88l-5.6,21.07h0l-.03,.08-1.17,4.42-.06,.09-.97,3.61c-.47,1.15-1.38,.94-1.85,.73l-3.05-3.01s-.08-.06-.12-.1l-.1-.07-5.42-5.4-.29-.29h0l-22.44-22.3-13.83,52.02h13.67c-.85-.48-.89-.94-.89-1.62,0-.08,.21-1.52,.22-1.67,.13-1.07,.74-3.38,.74-3.38l3.79-14.29h-.02l.7-2.58,.61-2.23,.03-.04,.9-3.34c.47-1.18,1.37-.96,1.84-.73l2.82,2.78,.05,.03,2.51,2.49,3.59,3.54h-.03l21.17,21.03h1.66l12.88-48.22c.22-.99,.59-1.89,1.06-2.7l-12.38,.05Z"/>
      </g>
      <g>
        <path class="cls-9" d="M17.92,91.54c-2.67,0-5.13-.46-7.33-1.36-2.2-.9-4.11-2.17-5.67-3.77-1.56-1.59-2.79-3.5-3.64-5.67-.85-2.16-1.28-4.52-1.28-7.03s.44-4.74,1.31-6.9c.87-2.16,2.11-4.08,3.68-5.7,1.57-1.62,3.48-2.93,5.65-3.88,2.18-.95,4.6-1.43,7.18-1.43,1.48,0,2.85,.11,4.07,.32,1.22,.21,2.38,.52,3.42,.91,1.05,.39,2.05,.88,2.99,1.46,.93,.57,1.84,1.24,2.72,1.98l.66,.56-4.78,5.7-.67-.57c-.6-.51-1.22-.98-1.85-1.4-.61-.4-1.25-.75-1.92-1.02-.66-.27-1.41-.49-2.21-.66-.8-.16-1.7-.24-2.67-.24-1.37,0-2.66,.28-3.83,.84-1.19,.56-2.23,1.34-3.1,2.31-.88,.98-1.59,2.15-2.09,3.45-.51,1.3-.76,2.72-.76,4.2,0,1.59,.25,3.07,.74,4.4,.49,1.33,1.19,2.49,2.1,3.45,.9,.96,1.99,1.72,3.24,2.27,1.25,.54,2.67,.82,4.23,.82,1.46,0,2.85-.22,4.11-.64,1.11-.37,2.1-.86,2.95-1.44v-4.87h-8.41v-6.76h15.73v15.08l-.31,.26c-.84,.71-1.78,1.4-2.8,2.04-1.02,.65-2.14,1.23-3.33,1.71-1.19,.49-2.49,.88-3.84,1.15-1.37,.28-2.82,.42-4.3,.42Zm-.09-34c-2.34,0-4.52,.43-6.49,1.29-1.97,.86-3.68,2.03-5.1,3.49-1.42,1.46-2.53,3.19-3.32,5.14-.78,1.95-1.18,4.06-1.18,6.25s.39,4.44,1.16,6.4c.77,1.95,1.87,3.66,3.26,5.09,1.4,1.43,3.11,2.56,5.09,3.37,1.98,.81,4.23,1.23,6.67,1.23,1.37,0,2.71-.13,3.96-.38,1.25-.25,2.44-.61,3.53-1.06,1.09-.45,2.12-.98,3.06-1.57h0c.82-.52,1.59-1.08,2.3-1.65v-12.53h-12.26v3.29h8.41v7.49l-.35,.26c-1.07,.81-2.35,1.46-3.79,1.95-1.44,.48-3.01,.73-4.67,.73-1.8,0-3.46-.33-4.93-.97-1.46-.64-2.74-1.54-3.81-2.67-1.06-1.13-1.89-2.49-2.46-4.04-.57-1.53-.85-3.21-.85-5.01s.3-3.33,.88-4.83c.58-1.5,1.4-2.84,2.42-3.98,1.03-1.15,2.26-2.06,3.66-2.72,1.41-.66,2.95-1,4.57-1,1.08,0,2.09,.09,3.01,.27,.91,.18,1.76,.44,2.53,.75,.77,.32,1.52,.72,2.22,1.18,.45,.3,.89,.62,1.33,.96l2.55-3.04c-.6-.47-1.21-.9-1.83-1.28-.84-.52-1.75-.96-2.69-1.31-.94-.35-1.99-.63-3.11-.83-1.12-.19-2.39-.29-3.77-.29Z"/>
        <path class="cls-9" d="M66.38,90.97h-8.95l-8.1-11.46h-5.94v11.46h-7.47V56.36h15.52c1.96,0,3.76,.26,5.36,.77,1.62,.52,3.02,1.27,4.15,2.23,1.15,.98,2.04,2.19,2.65,3.6,.61,1.4,.92,2.98,.92,4.69,0,1.47-.22,2.81-.64,3.98-.42,1.17-1.02,2.22-1.77,3.12-.75,.9-1.65,1.67-2.68,2.3-.69,.42-1.43,.77-2.22,1.06l9.16,12.85Zm-8.05-1.74h4.67l-8.62-12.09,1.21-.33c1.07-.29,2.06-.71,2.95-1.24,.87-.53,1.62-1.17,2.25-1.93,.62-.75,1.12-1.62,1.47-2.61,.35-.98,.53-2.12,.53-3.39,0-1.47-.26-2.81-.77-4-.51-1.17-1.24-2.17-2.18-2.97-.95-.81-2.15-1.45-3.55-1.9-1.43-.46-3.05-.69-4.83-.69h-13.78v31.13h3.99v-11.46h8.57l8.1,11.46Zm-7.33-14.84h-9.35v-12.82h9.3c2.35,0,4.23,.53,5.57,1.57h0c1.41,1.1,2.13,2.72,2.13,4.81,0,1.96-.73,3.55-2.15,4.73-1.38,1.13-3.23,1.71-5.5,1.71Zm-7.61-1.74h7.61c1.86,0,3.33-.44,4.39-1.31,1.02-.84,1.52-1.95,1.52-3.38,0-1.55-.48-2.68-1.45-3.44-1.03-.8-2.55-1.21-4.51-1.21h-7.56v9.34Z"/>
        <path class="cls-9" d="M84.08,91.54c-2.64,0-5.09-.47-7.29-1.41-2.19-.93-4.1-2.22-5.68-3.83-1.57-1.61-2.82-3.52-3.71-5.68-.88-2.16-1.33-4.48-1.33-6.9s.45-4.74,1.33-6.9c.88-2.16,2.15-4.08,3.76-5.71,1.6-1.62,3.53-2.92,5.72-3.87,2.2-.95,4.65-1.43,7.3-1.43s5.09,.47,7.29,1.41c2.19,.93,4.1,2.22,5.68,3.83,1.58,1.61,2.82,3.52,3.71,5.68,.88,2.16,1.33,4.48,1.33,6.9s-.45,4.74-1.33,6.9c-.88,2.16-2.15,4.08-3.76,5.71-1.61,1.62-3.53,2.92-5.72,3.87-2.2,.95-4.65,1.43-7.3,1.43Zm.09-34c-2.4,0-4.63,.43-6.6,1.29-1.99,.86-3.73,2.04-5.17,3.5-1.45,1.46-2.58,3.19-3.38,5.14-.8,1.95-1.2,4.05-1.2,6.25s.4,4.29,1.2,6.25c.8,1.95,1.92,3.68,3.34,5.12,1.42,1.44,3.14,2.6,5.12,3.45,1.98,.84,4.2,1.27,6.61,1.27s4.63-.43,6.61-1.29c1.99-.86,3.73-2.04,5.18-3.5,1.45-1.46,2.58-3.19,3.38-5.14,.8-1.95,1.2-4.05,1.2-6.25s-.4-4.29-1.2-6.25c-.8-1.95-1.92-3.67-3.34-5.12-1.42-1.44-3.14-2.6-5.12-3.45-1.98-.84-4.2-1.27-6.61-1.27Zm0,28.69c-1.75,0-3.38-.34-4.87-1.02-1.48-.67-2.76-1.59-3.82-2.74-1.06-1.14-1.89-2.49-2.47-4.01-.58-1.52-.88-3.15-.88-4.84s.3-3.33,.88-4.84c.58-1.52,1.41-2.86,2.45-3.99,1.05-1.13,2.32-2.04,3.78-2.69,1.47-.66,3.1-.99,4.84-.99s3.38,.34,4.87,1.02c1.48,.67,2.76,1.59,3.82,2.74,1.06,1.14,1.89,2.49,2.47,4.01h0c.58,1.52,.88,3.15,.88,4.84s-.3,3.33-.88,4.84c-.58,1.52-1.41,2.86-2.45,3.99-1.05,1.13-2.32,2.04-3.78,2.69-1.47,.66-3.1,.99-4.84,.99Zm-.09-23.39c-1.5,0-2.89,.28-4.13,.84-1.25,.56-2.33,1.33-3.22,2.29-.89,.96-1.6,2.12-2.1,3.43-.51,1.32-.76,2.74-.76,4.22s.26,2.9,.76,4.22c.5,1.31,1.22,2.48,2.13,3.45,.9,.98,2,1.76,3.27,2.34,1.26,.57,2.65,.86,4.15,.86s2.89-.28,4.13-.84c1.25-.56,2.33-1.33,3.22-2.29,.89-.96,1.6-2.12,2.1-3.43,.51-1.32,.76-2.74,.76-4.22s-.26-2.9-.76-4.22c-.51-1.31-1.22-2.48-2.13-3.45-.9-.97-2-1.76-3.27-2.34-1.26-.57-2.65-.86-4.15-.86Z"/>
        <path class="cls-9" d="M121.65,91.54c-2.64,0-5.1-.47-7.29-1.41-2.19-.93-4.1-2.22-5.68-3.83-1.57-1.61-2.82-3.52-3.71-5.68-.88-2.16-1.33-4.48-1.33-6.9s.45-4.74,1.33-6.9c.88-2.16,2.15-4.08,3.76-5.71,1.6-1.62,3.53-2.92,5.72-3.87,2.2-.95,4.65-1.43,7.3-1.43s5.09,.47,7.29,1.41c2.19,.93,4.1,2.22,5.68,3.83,1.58,1.61,2.82,3.52,3.71,5.68,.88,2.16,1.33,4.48,1.33,6.9s-.45,4.74-1.33,6.9h0c-.88,2.16-2.15,4.08-3.76,5.71-1.61,1.62-3.53,2.92-5.72,3.87-2.2,.95-4.65,1.43-7.3,1.43Zm.09-34c-2.4,0-4.63,.43-6.61,1.29-1.99,.86-3.73,2.04-5.17,3.5-1.45,1.46-2.58,3.19-3.38,5.14-.8,1.95-1.2,4.05-1.2,6.25s.4,4.29,1.2,6.25c.8,1.95,1.92,3.68,3.34,5.12,1.42,1.44,3.14,2.6,5.12,3.45,1.98,.84,4.2,1.27,6.61,1.27s4.63-.43,6.61-1.29c1.99-.86,3.73-2.04,5.17-3.5,1.45-1.46,2.58-3.19,3.38-5.14,.8-1.95,1.2-4.05,1.2-6.25s-.4-4.29-1.2-6.25c-.8-1.95-1.92-3.67-3.34-5.12-1.42-1.44-3.14-2.6-5.12-3.45-1.98-.84-4.2-1.27-6.61-1.27Zm0,28.69c-1.75,0-3.38-.34-4.87-1.02-1.48-.67-2.76-1.59-3.82-2.74-1.06-1.14-1.89-2.49-2.47-4.01-.58-1.52-.88-3.15-.88-4.84s.3-3.33,.88-4.84c.58-1.52,1.41-2.86,2.45-3.99,1.04-1.13,2.32-2.04,3.78-2.69,1.47-.66,3.1-.99,4.84-.99s3.38,.34,4.87,1.02c1.48,.67,2.76,1.59,3.82,2.74,1.06,1.14,1.89,2.49,2.47,4.01h0c.58,1.52,.88,3.15,.88,4.84s-.3,3.32-.88,4.84c-.59,1.52-1.41,2.86-2.45,3.99-1.05,1.13-2.32,2.04-3.78,2.69-1.47,.66-3.1,.99-4.84,.99Zm-.09-23.39c-1.5,0-2.89,.28-4.13,.84-1.25,.56-2.33,1.33-3.22,2.29-.89,.96-1.6,2.12-2.1,3.43-.51,1.32-.76,2.74-.76,4.22s.26,2.9,.76,4.22c.5,1.31,1.22,2.48,2.13,3.45,.9,.98,2,1.76,3.27,2.34,1.26,.57,2.65,.86,4.15,.86s2.89-.28,4.13-.84c1.25-.56,2.33-1.33,3.22-2.29,.89-.96,1.6-2.12,2.1-3.43,.51-1.32,.76-2.74,.76-4.22s-.26-2.9-.76-4.22c-.51-1.31-1.22-2.48-2.13-3.45-.9-.97-2-1.76-3.27-2.34-1.26-.57-2.65-.86-4.15-.86Z"/>
        <path class="cls-9" d="M176.71,90.97h-7.47v-21.58l-9.05,13.51h-1.12l-8.95-13.41v21.48h-7.47V56.36h7.5l9.53,14.81,9.53-14.81h7.5v34.61Zm-5.73-1.74h3.99v-31.13h-4.81l-10.48,16.28-10.48-16.28h-4.81v31.13h3.99v-25.48l11.25,16.85,11.34-16.93v25.56Z"/>
        <path class="cls-9" d="M188.88,90.97h-7.47V56.36h7.47v34.61Zm-5.73-1.74h3.99v-31.13h-3.99v31.13Z"/>
        <path class="cls-9" d="M224,90.97h-6.12l-16.79-21.71v21.71h-7.47V56.36h6.64l16.28,21.05v-21.05h7.47v34.61Zm-5.27-1.74h3.53v-31.13h-3.99v24.4l-18.87-24.4h-4.05v31.13h3.99v-25.06l19.39,25.06Z"/>
        <path class="cls-9" d="M244.83,91.54c-2.67,0-5.13-.46-7.33-1.36-2.2-.9-4.11-2.17-5.67-3.77-1.56-1.59-2.79-3.5-3.64-5.67-.85-2.16-1.28-4.52-1.28-7.03s.44-4.74,1.31-6.9c.87-2.16,2.11-4.08,3.68-5.7,1.57-1.62,3.48-2.93,5.65-3.88,2.18-.95,4.6-1.43,7.18-1.43,1.48,0,2.85,.11,4.07,.32,1.22,.21,2.37,.52,3.42,.91,1.05,.39,2.05,.88,2.99,1.46,.93,.57,1.84,1.24,2.72,1.98l.66,.56-4.78,5.7-.67-.57c-.6-.51-1.22-.98-1.85-1.4-.61-.4-1.25-.75-1.92-1.02-.66-.27-1.41-.5-2.21-.66-.8-.16-1.7-.24-2.67-.24-1.37,0-2.66,.28-3.83,.84-1.19,.56-2.23,1.34-3.1,2.31-.88,.98-1.59,2.15-2.09,3.45-.51,1.3-.76,2.72-.76,4.2,0,1.58,.25,3.07,.74,4.4,.49,1.33,1.19,2.49,2.1,3.45,.9,.96,1.99,1.72,3.24,2.27,1.25,.54,2.67,.82,4.23,.82,1.46,0,2.85-.22,4.11-.64,1.11-.37,2.1-.86,2.95-1.44v-4.87h-8.41v-6.76h15.73v15.08l-.31,.26c-.84,.71-1.78,1.4-2.8,2.04h0c-1.02,.65-2.14,1.23-3.33,1.71-1.19,.49-2.49,.88-3.84,1.15-1.37,.28-2.82,.42-4.31,.42Zm-.09-34c-2.34,0-4.52,.43-6.49,1.29-1.97,.86-3.68,2.03-5.1,3.49-1.42,1.46-2.53,3.19-3.32,5.14-.78,1.95-1.18,4.06-1.18,6.25s.39,4.44,1.16,6.4c.77,1.95,1.87,3.66,3.26,5.09,1.4,1.43,3.11,2.56,5.09,3.37,1.98,.81,4.23,1.23,6.67,1.23,1.37,0,2.71-.13,3.96-.38,1.25-.25,2.44-.61,3.53-1.06,1.09-.45,2.12-.98,3.06-1.57h0c.82-.52,1.6-1.08,2.3-1.65v-12.53h-12.26v3.29h8.41v7.49l-.35,.26c-1.07,.81-2.35,1.46-3.79,1.95-1.44,.48-3.01,.73-4.67,.73-1.8,0-3.46-.33-4.93-.97-1.46-.64-2.74-1.54-3.81-2.67-1.06-1.13-1.89-2.49-2.46-4.04-.57-1.53-.85-3.22-.85-5.01s.3-3.33,.88-4.83c.58-1.5,1.4-2.84,2.42-3.98,1.03-1.15,2.26-2.06,3.66-2.72,1.41-.66,2.95-1,4.57-1,1.08,0,2.1,.09,3.01,.27,.91,.18,1.76,.44,2.53,.75,.77,.32,1.52,.72,2.22,1.18,.45,.3,.89,.62,1.33,.96l2.55-3.04c-.6-.47-1.21-.9-1.83-1.28-.84-.52-1.75-.96-2.69-1.31-.94-.35-1.99-.63-3.11-.83-1.12-.19-2.39-.29-3.77-.29Z"/>
        <path class="cls-9" d="M282.05,90.97h-7.47V56.36h13.83c1.99,0,3.83,.28,5.46,.82,1.66,.55,3.09,1.36,4.25,2.41,1.17,1.05,2.08,2.32,2.71,3.78,.62,1.45,.94,3.1,.94,4.9,0,1.97-.38,3.74-1.12,5.27h0c-.75,1.52-1.78,2.81-3.07,3.82-1.27,1-2.78,1.77-4.47,2.29-1.67,.51-3.49,.77-5.38,.77h-5.67v10.57Zm-5.73-1.74h3.99v-10.57h7.41c1.73,0,3.37-.23,4.88-.69,1.49-.45,2.8-1.12,3.9-1.99,1.08-.85,1.95-1.94,2.58-3.22h0c.63-1.28,.95-2.8,.95-4.5,0-1.56-.27-2.98-.8-4.21-.53-1.22-1.29-2.29-2.27-3.17-.99-.89-2.21-1.58-3.64-2.05-1.45-.48-3.11-.73-4.91-.73h-12.09v31.13Zm11.6-14.04h-7.61v-13.62h7.61c2.35,0,4.27,.56,5.71,1.67h0c1.51,1.16,2.27,2.89,2.27,5.14,0,2.05-.74,3.72-2.21,4.98-1.43,1.22-3.37,1.83-5.77,1.83Zm-5.87-1.74h5.87c1.98,0,3.54-.48,4.64-1.42,1.08-.92,1.6-2.11,1.6-3.65,0-1.71-.52-2.94-1.59-3.77-1.13-.87-2.69-1.31-4.65-1.31h-5.87v10.14Z"/>
        <path class="cls-9" d="M333.97,90.97h-8.01l-3.33-7.94h-14.39l-3.38,7.94h-7.82l15.22-34.85h6.49l15.22,34.85Zm-6.86-1.74h4.2l-13.7-31.37h-4.22l-13.7,31.37h4.01l3.38-7.94h16.7l3.33,7.94Zm-4.7-11.32h-13.96l6.95-16.22,7.01,16.22Zm-11.32-1.74h8.68l-4.36-10.08-4.32,10.08Z"/>
        <path class="cls-9" d="M365.52,90.97h-8.95l-8.1-11.46h-5.94v11.46h-7.47V56.36h15.52c1.96,0,3.76,.26,5.36,.77,1.62,.52,3.02,1.27,4.15,2.23,1.15,.98,2.04,2.19,2.65,3.6,.61,1.4,.92,2.98,.92,4.69,0,1.47-.21,2.81-.64,3.98-.42,1.17-1.02,2.22-1.77,3.12-.75,.9-1.65,1.68-2.68,2.3-.69,.42-1.43,.77-2.22,1.06l9.16,12.85Zm-8.05-1.74h4.67l-8.62-12.09,1.21-.33c1.07-.29,2.06-.71,2.95-1.24,.87-.53,1.62-1.17,2.25-1.93,.62-.75,1.12-1.62,1.47-2.61,.35-.98,.53-2.12,.53-3.39,0-1.47-.26-2.81-.77-4-.51-1.17-1.24-2.17-2.18-2.97-.96-.81-2.15-1.45-3.55-1.9-1.43-.46-3.05-.69-4.83-.69h-13.78v31.13h3.99v-11.46h8.57l8.1,11.46Zm-7.33-14.84h-9.35v-12.82h9.3c2.35,0,4.23,.53,5.57,1.57h0c1.41,1.1,2.13,2.72,2.13,4.81,0,1.96-.73,3.55-2.15,4.73-1.38,1.13-3.23,1.71-5.5,1.71Zm-7.61-1.74h7.61c1.86,0,3.33-.44,4.39-1.31,1.02-.84,1.52-1.95,1.52-3.38,0-1.55-.48-2.68-1.45-3.44h0c-1.03-.8-2.55-1.21-4.51-1.21h-7.56v9.34Z"/>
        <path class="cls-9" d="M382.17,90.97h-7.56v-27.52h-10.43v-7.09h28.41v7.09h-10.43v27.52Zm-5.82-1.74h4.09v-27.52h10.43v-3.62h-24.94v3.62h10.43v27.52Z"/>
        <path class="cls-9" d="M424.99,90.97h-6.12l-16.79-21.71v21.71h-7.47V56.36h6.64l16.28,21.05v-21.05h7.47v34.61Zm-5.27-1.74h3.53v-31.13h-3.99v24.4l-18.87-24.4h-4.05v31.13h3.99v-25.06l19.38,25.06Z"/>
        <path class="cls-9" d="M455.66,90.97h-26.3V56.36h26.06v6.95h-18.6v6.71h16.48v6.95h-16.48v7.04h18.83v6.95Zm-24.56-1.74h22.82v-3.47h-18.83v-10.52h16.48v-3.47h-16.48v-10.19h18.6v-3.47h-22.59v31.13Z"/>
        <path class="cls-9" d="M488.93,90.97h-8.95l-8.1-11.46h-5.93v11.46h-7.47V56.36h15.52c1.96,0,3.76,.26,5.36,.77,1.62,.52,3.02,1.27,4.15,2.23,1.15,.97,2.04,2.19,2.65,3.6,.61,1.4,.92,2.98,.92,4.69,0,1.47-.21,2.81-.64,3.98-.43,1.17-1.02,2.22-1.77,3.12-.75,.9-1.65,1.68-2.68,2.3-.69,.42-1.43,.77-2.22,1.06l9.16,12.85Zm-8.05-1.74h4.67l-8.62-12.09,1.21-.33c1.07-.29,2.06-.71,2.95-1.24,.87-.53,1.62-1.17,2.25-1.93,.62-.75,1.12-1.62,1.47-2.61,.35-.98,.53-2.12,.53-3.39,0-1.47-.26-2.81-.77-4-.51-1.17-1.24-2.17-2.18-2.97-.96-.81-2.15-1.45-3.55-1.9-1.43-.46-3.05-.69-4.83-.69h-13.78v31.13h3.99v-11.46h8.57l8.1,11.46Zm-7.33-14.84h-9.35v-12.82h9.3c2.35,0,4.23,.53,5.57,1.57h0c1.41,1.1,2.13,2.72,2.13,4.81,0,1.96-.72,3.55-2.15,4.73-1.38,1.13-3.23,1.71-5.5,1.71Zm-7.61-1.74h7.61c1.86,0,3.33-.44,4.39-1.31,1.02-.84,1.52-1.95,1.52-3.38,0-1.55-.48-2.68-1.45-3.44-1.03-.8-2.55-1.21-4.51-1.21h-7.56v9.34Z"/>
        <path class="cls-7" d="M33.45,84.31v-13.8h-13.99v5.02h8.4v6.15c-1,.76-2.18,1.36-3.54,1.81-1.37,.45-2.84,.68-4.39,.68-1.69,0-3.22-.29-4.58-.89-1.37-.6-2.54-1.41-3.53-2.46-.99-1.05-1.74-2.29-2.28-3.74-.53-1.44-.8-3-.8-4.69,0-1.6,.28-3.1,.83-4.51,.55-1.41,1.3-2.65,2.26-3.71,.95-1.06,2.08-1.9,3.38-2.52,1.29-.6,2.69-.91,4.19-.91,1.03,0,1.97,.08,2.84,.25,.87,.17,1.65,.41,2.38,.71,.72,.31,1.41,.67,2.06,1.1,.65,.44,1.29,.92,1.92,1.45l3.67-4.37c-.85-.72-1.72-1.36-2.61-1.9-.89-.55-1.84-1-2.84-1.38-1-.37-2.09-.67-3.26-.87-1.18-.2-2.49-.31-3.93-.31-2.48,0-4.75,.45-6.83,1.36-2.09,.92-3.87,2.14-5.38,3.69-1.5,1.56-2.68,3.37-3.5,5.43-.84,2.06-1.25,4.26-1.25,6.58s.41,4.65,1.22,6.71c.81,2.06,1.97,3.86,3.46,5.38,1.48,1.52,3.27,2.7,5.36,3.57,2.09,.87,4.43,1.29,7,1.29,1.44,0,2.81-.13,4.13-.4,1.32-.27,2.54-.64,3.69-1.1,1.14-.47,2.21-1.01,3.19-1.64,.99-.63,1.89-1.29,2.7-1.97h0Zm33.06,4.55l-8.88-12.45c1.16-.31,2.22-.76,3.18-1.34,.95-.57,1.77-1.28,2.46-2.12,.68-.83,1.22-1.78,1.61-2.86,.39-1.08,.59-2.3,.59-3.67,0-1.6-.28-3.05-.84-4.35-.57-1.29-1.37-2.4-2.42-3.29-1.05-.89-2.33-1.57-3.85-2.06-1.52-.48-3.22-.72-5.1-.72h-14.64v32.87h5.76v-11.46h7.24l8.07,11.46h6.82Zm-6.91-22.12c0,1.69-.61,3.05-1.82,4.05-1.22,1-2.88,1.5-4.94,1.5h-8.45v-11.04h8.41c2.16,0,3.83,.47,5.02,1.38,1.18,.92,1.78,2.29,1.78,4.1h0Zm43.54,5.64c0-2.32-.43-4.51-1.26-6.58-.84-2.06-2.01-3.87-3.51-5.4-1.5-1.53-3.31-2.76-5.4-3.65-2.09-.89-4.41-1.33-6.95-1.33s-4.86,.45-6.95,1.36c-2.1,.92-3.91,2.14-5.44,3.69-1.53,1.56-2.73,3.37-3.57,5.43-.85,2.06-1.28,4.26-1.28,6.58s.43,4.51,1.28,6.58c.84,2.06,2.01,3.86,3.51,5.39,1.5,1.53,3.3,2.74,5.4,3.63,2.09,.89,4.41,1.34,6.95,1.34s4.86-.45,6.95-1.36c2.09-.91,3.91-2.13,5.44-3.69,1.53-1.56,2.73-3.37,3.57-5.43,.84-2.06,1.26-4.25,1.26-6.56h0Zm-6.06,.09c0,1.6-.27,3.1-.81,4.53-.55,1.42-1.3,2.66-2.28,3.71-.97,1.05-2.14,1.88-3.5,2.49-1.37,.61-2.86,.92-4.49,.92s-3.14-.32-4.51-.95c-1.37-.63-2.56-1.46-3.54-2.53-.99-1.06-1.76-2.32-2.3-3.74-.55-1.42-.83-2.93-.83-4.53s.28-3.11,.83-4.54c.55-1.42,1.3-2.66,2.28-3.71,.97-1.05,2.13-1.88,3.5-2.49,1.36-.6,2.85-.91,4.49-.91s3.13,.31,4.51,.93c1.37,.63,2.56,1.48,3.54,2.54,.99,1.06,1.76,2.3,2.3,3.73,.55,1.42,.81,2.94,.81,4.54h0Zm43.63-.09c0-2.32-.43-4.51-1.26-6.58-.84-2.06-2.01-3.87-3.51-5.4-1.5-1.53-3.31-2.76-5.4-3.65s-4.41-1.33-6.95-1.33-4.86,.45-6.95,1.36c-2.1,.92-3.91,2.14-5.44,3.69-1.53,1.56-2.73,3.37-3.57,5.43-.85,2.06-1.28,4.26-1.28,6.58s.43,4.51,1.28,6.58c.84,2.06,2.01,3.86,3.51,5.39,1.5,1.53,3.3,2.74,5.4,3.63,2.09,.89,4.41,1.34,6.95,1.34s4.86-.45,6.95-1.36c2.09-.91,3.91-2.13,5.44-3.69,1.53-1.56,2.73-3.37,3.57-5.43,.84-2.06,1.26-4.25,1.26-6.56h0Zm-6.06,.09c0,1.6-.27,3.1-.81,4.53-.55,1.42-1.3,2.66-2.28,3.71-.97,1.05-2.14,1.88-3.5,2.49-1.37,.61-2.86,.92-4.49,.92s-3.14-.32-4.51-.95c-1.37-.63-2.56-1.46-3.54-2.53-.99-1.06-1.76-2.32-2.3-3.74-.55-1.42-.83-2.93-.83-4.53s.28-3.11,.83-4.54c.55-1.42,1.3-2.66,2.28-3.71,.97-1.05,2.13-1.88,3.5-2.49,1.36-.6,2.85-.91,4.49-.91s3.13,.31,4.51,.93c1.37,.63,2.56,1.48,3.54,2.54,.99,1.06,1.76,2.3,2.3,3.73,.55,1.42,.81,2.94,.81,4.54h0Zm37.25-7.19v23.58h5.78V55.99h-6.16l-10,15.53-10-15.53h-6.15v32.87h5.67v-23.48l10.29,15.4h.19l10.38-15.5h0Zm12.2-9.29v32.87h5.78V55.99h-5.78Zm35.18,22.72l-17.61-22.72h-5.35v32.87h5.67v-23.39l18.13,23.39h4.83V55.99h-5.67v22.72h0Zm41.09,5.59v-13.8h-13.99v5.02h8.4v6.15c-1,.76-2.18,1.36-3.54,1.81-1.37,.45-2.84,.68-4.39,.68-1.69,0-3.22-.29-4.58-.89-1.37-.6-2.54-1.41-3.53-2.46-.98-1.05-1.74-2.29-2.28-3.74-.53-1.44-.8-3-.8-4.69,0-1.6,.28-3.1,.83-4.51,.55-1.41,1.3-2.65,2.26-3.71,.95-1.06,2.08-1.9,3.38-2.52,1.29-.6,2.69-.91,4.19-.91,1.02,0,1.97,.08,2.84,.25,.87,.17,1.65,.41,2.38,.71,.72,.31,1.41,.67,2.06,1.1,.65,.44,1.29,.92,1.92,1.45l3.67-4.37c-.85-.72-1.72-1.36-2.61-1.9-.89-.55-1.84-1-2.84-1.38-1-.37-2.09-.67-3.26-.87-1.18-.2-2.49-.31-3.93-.31-2.48,0-4.75,.45-6.83,1.36-2.09,.92-3.87,2.14-5.38,3.69-1.5,1.56-2.68,3.37-3.5,5.43-.84,2.06-1.25,4.26-1.25,6.58s.41,4.65,1.22,6.71c.81,2.06,1.97,3.86,3.46,5.38,1.48,1.52,3.27,2.7,5.36,3.57,2.09,.87,4.43,1.29,7,1.29,1.44,0,2.81-.13,4.13-.4,1.32-.27,2.54-.64,3.69-1.1,1.14-.47,2.21-1.01,3.19-1.64,.99-.63,1.89-1.29,2.7-1.97h0Zm42.36-17.28c0-1.69-.29-3.22-.87-4.57-.59-1.34-1.41-2.5-2.49-3.47-1.08-.97-2.4-1.7-3.95-2.22s-3.29-.77-5.19-.77h-12.95v32.87h5.76v-10.57h6.54c1.81,0,3.51-.24,5.11-.73,1.6-.48,3-1.18,4.18-2.13,1.18-.95,2.13-2.12,2.82-3.53,.69-1.4,1.04-3.02,1.04-4.87h0Zm-5.87,.13c0,1.78-.64,3.22-1.9,4.3-1.26,1.08-3,1.62-5.19,1.62h-6.72v-11.83h6.72c2.16,0,3.87,.49,5.16,1.48,1.29,.99,1.93,2.46,1.93,4.43h0Zm23.16-11.41l14.46,33.11h-6.1l-3.34-7.93h-15.55l-3.38,7.93h-5.91l14.46-33.11h5.36Zm2.9,20.05l-5.68-13.15-5.63,13.15h11.32Zm42.74,13.06l-8.88-12.45c1.16-.31,2.22-.76,3.18-1.34,.95-.57,1.77-1.28,2.46-2.12,.68-.83,1.22-1.78,1.61-2.86,.39-1.08,.59-2.3,.59-3.67,0-1.6-.28-3.05-.84-4.35-.57-1.29-1.37-2.4-2.42-3.29-1.05-.89-2.33-1.57-3.85-2.06-1.52-.48-3.22-.72-5.1-.72h-14.64v32.87h5.76v-11.46h7.24l8.07,11.46h6.82Zm-6.91-22.12c0,1.69-.61,3.05-1.82,4.05-1.22,1-2.88,1.5-4.94,1.5h-8.45v-11.04h8.41c2.16,0,3.83,.47,5.02,1.38,1.18,.92,1.78,2.29,1.78,4.1h0Zm24.53-5.39h10.42v-5.35h-26.68v5.35h10.42v27.52h5.83v-27.52h0Zm37.15,17.37l-17.61-22.72h-5.35v32.87h5.67v-23.39l18.13,23.39h4.83V55.99h-5.67v22.72h0Zm36.15-22.72h-24.36v32.87h24.6v-5.16h-18.84v-8.83h16.49v-5.17h-16.49v-8.55h18.6v-5.16h0Zm32.65,32.87l-8.88-12.45c1.16-.31,2.22-.76,3.18-1.34,.95-.57,1.77-1.28,2.46-2.12,.68-.83,1.22-1.78,1.61-2.86,.39-1.08,.59-2.3,.59-3.67,0-1.6-.28-3.05-.84-4.35-.57-1.29-1.37-2.4-2.42-3.29-1.05-.89-2.33-1.57-3.85-2.06-1.52-.48-3.22-.72-5.1-.72h-14.64v32.87h5.76v-11.46h7.24l8.07,11.46h6.82Zm-6.91-22.12c0,1.69-.61,3.05-1.82,4.05-1.22,1-2.88,1.5-4.94,1.5h-8.45v-11.04h8.41c2.16,0,3.83,.47,5.02,1.38,1.18,.92,1.78,2.29,1.78,4.1Z"/>
        <path class="cls-9" d="M156.31,36.03c-2.63,0-5.07-.47-7.25-1.4-2.18-.93-4.08-2.21-5.65-3.81-1.56-1.6-2.8-3.5-3.68-5.64-.88-2.15-1.32-4.46-1.32-6.86s.45-4.71,1.32-6.86c.88-2.15,2.14-4.06,3.73-5.67,1.59-1.61,3.51-2.91,5.69-3.85,2.18-.95,4.62-1.42,7.25-1.42s5.07,.47,7.25,1.4c2.18,.93,4.08,2.21,5.65,3.81,1.57,1.6,2.8,3.5,3.68,5.65,.88,2.15,1.32,4.46,1.32,6.86s-.45,4.71-1.32,6.86c-.88,2.15-2.13,4.06-3.73,5.67-1.6,1.61-3.51,2.91-5.69,3.85-2.18,.95-4.62,1.42-7.25,1.42Zm.09-34c-2.42,0-4.66,.44-6.65,1.3-2,.87-3.75,2.05-5.21,3.52-1.46,1.47-2.6,3.21-3.41,5.18-.8,1.96-1.21,4.08-1.21,6.29s.41,4.32,1.21,6.29c.8,1.97,1.94,3.7,3.36,5.16,1.43,1.46,3.16,2.62,5.16,3.47,1.99,.85,4.23,1.28,6.65,1.28s4.66-.44,6.65-1.3c2-.87,3.75-2.05,5.21-3.52,1.46-1.47,2.6-3.21,3.41-5.18h0c.8-1.96,1.21-4.08,1.21-6.29s-.41-4.32-1.21-6.29c-.8-1.96-1.93-3.7-3.36-5.16-1.43-1.45-3.16-2.62-5.15-3.47-1.99-.85-4.23-1.28-6.65-1.28Zm0,28.69c-1.73,0-3.35-.34-4.82-1.01-1.46-.66-2.74-1.58-3.79-2.71-1.05-1.13-1.87-2.47-2.45-3.98-.58-1.5-.87-3.12-.87-4.8s.29-3.3,.87-4.8c.58-1.51,1.4-2.84,2.43-3.95,1.04-1.12,2.3-2.02,3.75-2.67,1.45-.65,3.07-.98,4.8-.98s3.35,.34,4.82,1.01c1.46,.67,2.74,1.58,3.79,2.71,1.05,1.13,1.87,2.47,2.45,3.98h0c.58,1.51,.87,3.12,.87,4.81s-.29,3.3-.87,4.8c-.58,1.51-1.4,2.84-2.43,3.95-1.04,1.12-2.3,2.02-3.75,2.67-1.45,.65-3.07,.98-4.8,.98Zm-.09-23.39c-1.51,0-2.92,.29-4.17,.85-1.26,.57-2.36,1.34-3.25,2.31-.9,.97-1.62,2.14-2.13,3.47-.51,1.33-.77,2.76-.77,4.26s.26,2.93,.77,4.26c.51,1.33,1.23,2.5,2.15,3.49,.91,.99,2.02,1.78,3.3,2.36,1.27,.58,2.68,.87,4.19,.87s2.92-.29,4.17-.85c1.26-.57,2.36-1.34,3.25-2.31,.9-.97,1.62-2.14,2.13-3.47,.51-1.33,.77-2.76,.77-4.26s-.26-2.93-.77-4.26c-.51-1.33-1.23-2.5-2.15-3.49-.91-.98-2.02-1.78-3.3-2.36-1.27-.58-2.68-.87-4.19-.87Z"/>
        <path class="cls-9" d="M184.68,35.47h-7.25V1.08h25.94V7.81h-18.69v7.54h16.58v6.73h-16.58v13.38Zm-5.73-1.52h4.21v-13.38h16.58v-3.69h-16.58V6.29h18.69V2.6h-22.9v31.35Z"/>
        <path class="cls-9" d="M213.14,35.47h-7.25V1.08h25.94V7.81h-18.69v7.54h16.58v6.73h-16.58v13.38Zm-5.73-1.52h4.21v-13.38h16.58v-3.69h-16.58V6.29h18.69V2.6h-22.9v31.35Z"/>
        <path class="cls-9" d="M241.93,35.47h-7.25V1.08h7.25V35.47Zm-5.73-1.52h4.21V2.6h-4.21v31.35Z"/>
        <path class="cls-9" d="M262.91,36.03c-2.5,0-4.85-.46-6.97-1.38-2.12-.91-3.98-2.18-5.53-3.76-1.55-1.58-2.78-3.47-3.66-5.62-.88-2.15-1.32-4.49-1.32-6.96s.44-4.76,1.3-6.91c.86-2.15,2.09-4.06,3.66-5.67,1.56-1.61,3.45-2.9,5.6-3.83,2.15-.93,4.56-1.4,7.16-1.4,1.54,0,2.98,.13,4.26,.39,1.28,.26,2.48,.63,3.56,1.11,1.08,.47,2.09,1.04,3,1.7,.91,.65,1.77,1.37,2.57,2.14l.52,.5-4.7,5.41-.58-.54c-1.26-1.17-2.6-2.12-4.01-2.84-1.36-.69-2.93-1.04-4.68-1.04-1.45,0-2.8,.28-4.03,.85-1.23,.57-2.31,1.34-3.21,2.31-.9,.97-1.61,2.13-2.1,3.44-.5,1.32-.75,2.76-.75,4.29s.25,2.98,.75,4.31c.5,1.33,1.2,2.5,2.1,3.49,.9,.98,1.97,1.77,3.21,2.33,1.22,.56,2.58,.85,4.03,.85,1.87,0,3.49-.36,4.81-1.06,1.38-.73,2.76-1.74,4.11-3.01l.54-.5,4.74,4.8-.5,.53c-.87,.93-1.79,1.77-2.75,2.51h0c-.96,.73-2,1.37-3.11,1.91-1.12,.54-2.35,.96-3.67,1.23-1.32,.28-2.78,.42-4.36,.42Zm.23-34c-2.39,0-4.59,.43-6.55,1.28-1.96,.85-3.68,2.02-5.11,3.49-1.43,1.47-2.55,3.21-3.34,5.18-.79,1.97-1.19,4.1-1.19,6.34s.41,4.42,1.21,6.38c.8,1.97,1.93,3.69,3.34,5.13,1.41,1.44,3.11,2.59,5.04,3.43,1.93,.83,4.07,1.25,6.37,1.25,1.47,0,2.83-.13,4.05-.38,1.2-.25,2.32-.63,3.32-1.11,1.02-.49,1.98-1.08,2.85-1.75,.71-.54,1.39-1.14,2.05-1.81l-2.68-2.71c-1.28,1.13-2.58,2.05-3.89,2.74-1.54,.82-3.4,1.24-5.52,1.24-1.67,0-3.24-.33-4.66-.98-1.42-.65-2.66-1.56-3.7-2.69-1.03-1.13-1.84-2.47-2.4-3.98-.56-1.5-.85-3.13-.85-4.84s.29-3.34,.85-4.82c.56-1.49,1.37-2.82,2.41-3.93,1.03-1.12,2.28-2.01,3.69-2.66,1.42-.65,2.99-.99,4.66-.99,1.99,0,3.8,.41,5.37,1.21,1.31,.67,2.57,1.53,3.77,2.55l2.72-3.14c-.6-.53-1.22-1.04-1.87-1.5-.83-.59-1.75-1.11-2.73-1.54-.98-.43-2.07-.77-3.25-1.01-1.18-.24-2.51-.36-3.96-.36Z"/>
        <path class="cls-9" d="M286.77,35.47h-7.25V1.08h7.25V35.47Zm-5.73-1.52h4.21V2.6h-4.21v31.35Z"/>
        <path class="cls-9" d="M325.12,35.47h-7.77l-3.33-7.94h-14.54l-3.38,7.94h-7.58L303.64,.84h6.35l15.13,34.63Zm-6.76-1.52h4.44l-13.8-31.59h-4.36l-13.8,31.59h4.25l3.38-7.94h16.55l3.33,7.94Zm-4.8-11.53h-13.63l6.79-15.83,6.84,15.83Zm-11.32-1.52h9.01l-4.52-10.46-4.49,10.46Z"/>
        <path class="cls-9" d="M351.02,35.47h-24.53V1.08h7.25V28.74h17.28v6.73Zm-23.01-1.52h21.49v-3.69h-17.28V2.6h-4.21v31.35Z"/>
        <path class="cls-7" d="M175.36,16.96c0-2.32-.43-4.51-1.26-6.58-.84-2.06-2.01-3.87-3.51-5.4-1.5-1.53-3.31-2.76-5.4-3.65-2.09-.89-4.41-1.33-6.95-1.33s-4.86,.45-6.95,1.36c-2.1,.92-3.91,2.14-5.44,3.69-1.53,1.56-2.73,3.37-3.57,5.43-.85,2.06-1.28,4.26-1.28,6.58s.43,4.51,1.28,6.58c.84,2.06,2.01,3.86,3.51,5.39,1.5,1.53,3.3,2.74,5.4,3.63,2.09,.89,4.41,1.34,6.95,1.34s4.86-.45,6.95-1.36c2.09-.91,3.91-2.13,5.44-3.69,1.53-1.56,2.73-3.37,3.57-5.43,.84-2.06,1.26-4.25,1.26-6.56h0Zm-6.06,.09c0,1.6-.27,3.1-.81,4.53-.55,1.42-1.3,2.66-2.28,3.71-.97,1.05-2.14,1.88-3.5,2.49-1.37,.61-2.86,.92-4.49,.92s-3.14-.32-4.51-.95c-1.37-.63-2.56-1.46-3.54-2.53-.99-1.06-1.76-2.32-2.3-3.74-.55-1.42-.83-2.93-.83-4.53s.28-3.12,.83-4.54c.55-1.42,1.3-2.66,2.28-3.71,.97-1.05,2.13-1.88,3.5-2.49,1.36-.6,2.85-.91,4.49-.91s3.13,.31,4.51,.93c1.37,.63,2.56,1.48,3.54,2.54,.99,1.06,1.76,2.3,2.3,3.73,.55,1.42,.81,2.94,.81,4.54h0ZM204.48,.57h-24.45V33.44h5.76v-13.38h16.59v-5.27h-16.59V5.83h18.69V.57h0Zm28.46,0h-24.45V33.44h5.76v-13.38h16.59v-5.27h-16.59V5.83h18.69V.57h0Zm4.32,0V33.44h5.78V.57h-5.78Zm40.81,27.61l-3.71-3.75c-1.41,1.32-2.84,2.36-4.27,3.11-1.44,.77-3.15,1.16-5.16,1.16-1.56,0-3.01-.31-4.34-.92-1.33-.61-2.48-1.45-3.45-2.52-.97-1.06-1.73-2.32-2.26-3.74-.53-1.42-.8-2.94-.8-4.57s.27-3.16,.8-4.57c.53-1.4,1.29-2.64,2.26-3.69,.97-1.05,2.12-1.88,3.45-2.49,1.33-.6,2.78-.91,4.34-.91,1.88,0,3.55,.37,5.03,1.12,1.46,.76,2.86,1.74,4.18,2.97l3.7-4.27c-.79-.76-1.61-1.45-2.48-2.08-.88-.63-1.84-1.16-2.86-1.61-1.04-.45-2.17-.81-3.41-1.06-1.24-.25-2.61-.37-4.11-.37-2.52,0-4.79,.44-6.86,1.33s-3.85,2.12-5.35,3.67c-1.5,1.56-2.68,3.35-3.5,5.42-.84,2.06-1.25,4.27-1.25,6.63s.43,4.61,1.28,6.67c.84,2.06,2.01,3.86,3.5,5.38,1.48,1.52,3.23,2.72,5.27,3.58,2.04,.88,4.26,1.32,6.67,1.32,1.53,0,2.94-.13,4.21-.4,1.26-.27,2.44-.65,3.5-1.17,1.06-.52,2.06-1.13,2.98-1.84,.92-.71,1.81-1.5,2.65-2.41h0Zm4.04-27.61V33.44h5.78V.57h-5.78Zm29.21-.24h-5.36l-14.46,33.11h5.91l3.38-7.93h15.55l3.34,7.93h6.1L311.32,.33h0Zm2.9,20.05h-11.32l5.63-13.15,5.68,13.15h0Zm14.85,13.06h23.06v-5.26h-17.29V.57h-5.76V33.44Z"/>
      </g>
    </g>
  </g>
</svg>